<?xml version="1.0" encoding="UTF-8"?>
<svg width="1654px" height="1536px" viewBox="0 0 1654 1536" version="1.1" xmlns="http://www.w3.org/2000/svg" xmlns:xlink="http://www.w3.org/1999/xlink">
    <!-- Generator: Sketch 52.4 (67378) - http://www.bohemiancoding.com/sketch -->
    <title>Blue Figure</title>
    <desc>Created with Sketch.</desc>
    <g id="Final" stroke="none" stroke-width="1" fill="none" fill-rule="evenodd">
        <path d="M1579.46953,254.8754 L1580.70739,254.48053 C1695.59179,312.300104 1770.63165,426.05154 1777.56016,552.885774 C1784.48868,679.720007 1722.25326,800.367899 1614.29737,869.382556 C1506.34148,938.397212 1369.0662,945.293665 1254.1818,887.474086 L1253.36078,887.06088 L1254.1818,887.474086 C1254.1818,887.474086 1001.07856,752.966002 831.50191,827.425721 C691.932902,888.487564 596.82821,1050.13372 566.965145,1106.35476 C564.729329,1112.69386 561.186179,1119.56252 557.781976,1126.16181 C467.788916,1300.61514 251.255401,1369.87041 73.8673576,1280.93525 C-103.520686,1192.00009 -174.745573,978.47445 -85.3078355,803.742703 C4.12990193,629.010956 220.440444,559.087234 398.108477,647.475386 C398.108477,647.475386 623.356159,758.464103 803.319377,713.321297 C951.592985,676.149459 1052.93569,493.722939 1084.00936,430.477171 C1087.28517,422.456102 1090.55042,416.126166 1094.23252,408.988154 C1184.78401,234.369052 1401.89888,165.412709 1579.46953,254.8754 Z" id="Blue-Figure" fill="#1980BA" transform="translate(827.083699, 767.703982) rotate(-383.000000) translate(-827.083699, -767.703982) "></path>
    </g>
</svg>