<svg xmlns="http://www.w3.org/2000/svg" xmlns:xlink="http://www.w3.org/1999/xlink" viewBox="0 0 1207.71 1241.03"><defs><style>.cls-1,.cls-7{fill:#fff;}.cls-1,.cls-13,.cls-14,.cls-15,.cls-22,.cls-24,.cls-27,.cls-3,.cls-33,.cls-5,.cls-6,.cls-8{fill-rule:evenodd;}.cls-2{mask:url(#mask);}.cls-3{fill:#6fc0eb;}.cls-4{mask:url(#mask-2-2);}.cls-12,.cls-5{fill:#73c49d;}.cls-6{fill:#2279a6;}.cls-16,.cls-8{fill:#1980b9;}.cls-15,.cls-9{fill:#eb6d52;}.cls-10{fill:#238da3;}.cls-11,.cls-13{fill:#333;}.cls-14,.cls-18{fill:#f79c4f;}.cls-17{fill:#2e2e2e;}.cls-19,.cls-24{fill:#e33a60;}.cls-20,.cls-29,.cls-30,.cls-33{fill:none;stroke-miterlimit:10;stroke-width:4px;}.cls-20,.cls-33{stroke:#333;}.cls-21{fill:#299ea9;}.cls-22,.cls-31{fill:#fccc39;}.cls-23{mask:url(#mask-4);}.cls-25{mask:url(#mask-6);}.cls-26{mask:url(#mask-7);}.cls-27{fill:#fab243;}.cls-28{mask:url(#mask-8);}.cls-29,.cls-30{stroke:#238da3;}.cls-30{stroke-dasharray:26.12 26.12;}.cls-32{mask:url(#mask-9);}</style><mask id="mask" x="-9063.84" y="-9986.11" width="20239.47" height="23393.04" maskUnits="userSpaceOnUse"><g id="mask-2"><polygon id="path-1" class="cls-1" points="-9063.84 13406.93 11175.63 13406.93 11175.63 -9986.11 -9063.84 -9986.11 -9063.84 13406.93"/></g></mask><mask id="mask-2-2" x="149.58" y="-170.39" width="1181.71" height="1365.84" maskUnits="userSpaceOnUse"><g id="mask-2-3" data-name="mask-2"><polygon id="path-1-2" data-name="path-1" class="cls-1" points="149.58 1195.45 1331.29 1195.45 1331.29 -170.39 149.58 -170.39 149.58 1195.45"/></g></mask><mask id="mask-4" x="-22.42" y="489.27" width="1450.54" height="1255" maskUnits="userSpaceOnUse"><g id="mask-2-5" data-name="mask-2"><polygon id="path-1-4" data-name="path-1" class="cls-1" points="-22.42 489.26 -22.42 1744.27 1428.12 1744.27 1428.12 489.26 -22.42 489.26"/></g></mask><mask id="mask-6" x="-227.21" y="-208.1" width="1181.71" height="1365.84" maskUnits="userSpaceOnUse"><g id="mask-2-7" data-name="mask-2"><polygon id="path-1-6" data-name="path-1" class="cls-1" points="-227.21 1157.74 954.5 1157.74 954.5 -208.1 -227.21 -208.1 -227.21 1157.74"/></g></mask><mask id="mask-7" x="589.76" y="8.29" width="1181.71" height="1365.84" maskUnits="userSpaceOnUse"><g id="mask-2-8" data-name="mask-2"><polygon id="path-1-7" data-name="path-1" class="cls-1" points="589.76 1374.13 1771.47 1374.13 1771.47 8.29 589.76 8.29 589.76 1374.13"/></g></mask><mask id="mask-8" x="368.1" y="54.4" width="1181.71" height="1365.84" maskUnits="userSpaceOnUse"><g id="mask-2-9" data-name="mask-2"><polygon id="path-1-8" data-name="path-1" class="cls-1" points="368.1 1420.24 1549.82 1420.24 1549.82 54.4 368.1 54.4 368.1 1420.24"/></g></mask><mask id="mask-9" x="572.96" y="429.37" width="1181.71" height="1365.84" maskUnits="userSpaceOnUse"><g id="mask-2-10" data-name="mask-2"><polygon id="path-1-9" data-name="path-1" class="cls-1" points="572.96 1795.21 1754.67 1795.21 1754.67 429.37 572.96 429.37 572.96 1795.21"/></g></mask></defs><title>businesses</title><g id="businesses"><g class="cls-2"><path id="Fill-70" class="cls-3" d="M979,610C979,820.46,807.56,991,596.11,991S213.33,820.46,213.33,610,384.66,228.61,596.11,228.61,979,399.43,979,610"/></g><g class="cls-4"><path id="Fill-58" class="cls-5" d="M303.61,337.79a22.36,22.36,0,1,1-22.36-22.26,22.31,22.31,0,0,1,22.36,22.26"/></g><g class="cls-4"><path id="Fill-62" class="cls-6" d="M335.11,315.53a22.31,22.31,0,0,0-22.35,22.26c0,.5,0,1,.05,1.49.09,4.4-.31,17.45-7.41,23.71-8.62,7.59-24.15,7.72-24.15,7.72A22.25,22.25,0,1,0,303.61,393c0-.46,0-.91-.05-1.36,0-4,.69-15.69,6.61-23,7.22-8.93,24.94-8.5,24.94-8.5l-.05,0h.05a22.26,22.26,0,1,0,0-44.51"/></g><polygon class="cls-7" points="630.19 587.46 619.1 641.19 608.89 690.66 586.49 690.66 568.97 658.31 534.02 593.83 582.87 574.89 630.19 587.46"/><path class="cls-8" d="M401.73,1104.33l-4-205.19,109.35-3.62s-2,83.33.33,83.33,55.33-3,55.33-3L566.41,1104Z"/><rect class="cls-7" x="415.56" y="917.26" width="71.31" height="9.55"/><rect class="cls-7" x="415.56" y="939.98" width="71.31" height="9.55"/><rect class="cls-7" x="415.56" y="968.31" width="71.31" height="9.55"/><rect class="cls-9" x="375.99" y="1046.91" width="98.97" height="16.2" transform="translate(1480.48 629.54) rotate(90)"/><rect class="cls-9" x="415.54" y="1046.91" width="98.97" height="16.2" transform="translate(1520.04 589.98) rotate(90)"/><rect class="cls-9" x="455.1" y="1046.91" width="98.97" height="16.2" transform="translate(1559.6 550.43) rotate(90)"/><rect class="cls-9" x="494.66" y="1046.91" width="98.97" height="16.2" transform="translate(1599.15 510.87) rotate(90)"/><circle class="cls-10" cx="317.9" cy="1030.96" r="35.4"/><rect class="cls-11" x="314.2" y="1045.92" width="6.76" height="51.5"/><circle class="cls-12" cx="639.52" cy="1035.4" r="35.4"/><circle class="cls-12" cx="639.52" cy="997.64" r="20.44"/><rect class="cls-11" x="635.82" y="1017.55" width="6.76" height="84.32"/><rect class="cls-11" x="645.95" y="1023.56" width="3.21" height="24.38" transform="translate(667.71 -185.6) rotate(32.96)"/><rect class="cls-11" x="633.23" y="1021.8" width="1.93" height="18.89" transform="translate(1759.56 1477.58) rotate(143.22)"/><polygon class="cls-13" points="976.5 850.8 976.03 847.1 965.12 849.49 963.85 839.61 971.59 837.82 967.92 810.73 936.12 818.08 939.79 845.17 961.02 840.26 962.75 853.76 962.75 853.76 962.76 853.8 976.5 850.8"/><polygon class="cls-13" points="925.3 814.43 930.77 854.71 938.8 852.86 933.34 812.58 925.3 814.43"/><polygon class="cls-13" points="506.35 921.03 506.83 918.13 517.97 920 519.26 912.27 511.36 910.87 515.11 889.67 547.57 895.42 543.82 916.62 522.15 912.78 520.38 923.34 520.38 923.34 520.38 923.37 506.35 921.03"/><rect class="cls-11" x="535.72" y="903.44" width="32" height="8.33" transform="translate(-438.18 1292.61) rotate(-79.96)"/><polygon class="cls-13" points="855.95 952.46 855.62 949.95 865.28 948.68 864.39 941.99 857.53 942.82 855.28 924.4 883.5 920.96 885.75 939.38 866.91 941.68 868.11 950.83 868.11 950.83 868.11 950.86 855.95 952.46"/><rect class="cls-11" x="886.4" y="916.16" width="7.18" height="27.6" transform="translate(-105.99 114.52) rotate(-6.95)"/><polygon class="cls-14" points="853.27 1104.99 712.31 1104.99 712.31 932.41 855.25 946.24 853.27 1104.99"/><polygon class="cls-15" points="810.68 984.45 704.41 982.47 704.41 965.67 814.74 965.67 810.68 984.45"/><polygon class="cls-15" points="812.6 1028.42 704.41 1024.96 704.41 1008.16 812.11 1004.7 812.6 1028.42"/><polygon class="cls-15" points="810.68 1071.07 704.41 1068.71 704.41 1048.67 814.74 1048.67 810.68 1071.07"/><path class="cls-16" d="M954.62,712.33c-10.17,58.95-48.86,93.74-136.36,87.17V713.22c56.75-74.48-7.52-123.47-83.6-140.37V718.58H461.51V574.18c-57.72,0-89.86,27.66-98.35,72.1-2.82,14.82-8.46,34.05-1.19,47.27,11.09,20.15,18.53,32.05,67.36,34.27l.6,93.59c-174.14,8.07-217.07-59.83-171.3-200.19,22.65-69.47,67.87-129.67,129.51-168.9,37.75-24,81.82-40.53,136.47-44.44l1.86-.13,57.65,44.06,55.43-41.1,3.07.32C858.53,433.14,965.11,554.27,954.62,712.33Z"/><polygon class="cls-7" points="582.87 451.22 515.03 483.5 556.85 642.9 657.31 642.9 654.67 471.31 582.87 451.22"/><path class="cls-17" d="M438.27,238.9c-3.52-.17-11.6-.67-15.87-6.26s-3.27-14.14-1.12-19.67c5.3-13.59,20.29-14.83,69.07-32,17.34-6.09,33.62-12.32,34.87-9.83,1.15,2.28-11.89,9-10.73,12.51,2.94,9,91.43-14.83,94.56-5.58,1.61,4.78-21.06,14.08-19.23,20.11,1.9,6.23,27.71,1.78,71.08,5.37,29,2.4,32,5.6,33.31,7.6,13.7,21.26-46,92-62.59,84.27-5.6-2.62-.25-11.37-6-21.91C607,239.58,502.94,242,438.27,238.9Z"/><path class="cls-18" d="M430.37,236.21c-.91,12.12-2,28.87-2.68,48.88-1.62,46.77.74,56.82,5.07,65.57,1.78,3.61,13.79,27,37.25,34,18.95,5.59,31.59-3.67,50.07,7.15,3.74,2.19,10.06,6,14.31,13.41,7.06,12.33.5,20.85,5.06,30.7,6.71,14.47,31.66,19.35,49.18,16.69,31.37-4.77,46-34.77,47.39-37.85V292.84C630.13,232.25,564.13,211.68,430.37,236.21Z"/><ellipse class="cls-19" cx="642.58" cy="306.96" rx="25.26" ry="20.23" transform="translate(-66.12 237.14) rotate(-19.91)"/><path class="cls-20" d="M509.21,291.56c.59-12.75,2.53-23.4,10.53-24.46a10.21,10.21,0,0,1,7.41,2.17q8.49,6.44,5.26,23.91"/><path class="cls-20" d="M437.27,282.62c.47-7.76,1.73-14.25,6.62-15a6.07,6.07,0,0,1,4.49,1.26q5.12,3.84,3,14.49"/><path class="cls-19" d="M471.6,288.75c-3.38,7-15.7,29.93-21.52,40.75a3.92,3.92,0,0,0,3.43,5.77l39.2.18a1.36,1.36,0,0,0,1.23-1.92l-20.53-44.76A1,1,0,0,0,471.6,288.75Z"/><polygon class="cls-21" points="584.57 452.14 507.68 490.81 524.61 407.88 524.89 406.54 526.47 407.75 584.12 451.81 584.13 451.82 584.57 452.14"/><polygon class="cls-21" points="665.04 489.58 584.13 451.82 584.12 451.81 639.55 410.71 642.01 408.89 642.62 411.03 665.04 489.58"/><polygon class="cls-12" points="591.66 493.71 607.11 475.98 584.16 451.84 564.64 479.11 582.8 492.37 566.48 562.91 590.26 606.82 620.67 606.82 634.53 539.67 591.66 493.71"/><polygon class="cls-22" points="736.46 803.58 492.37 803.58 492.37 592.49 738.69 571.21 736.46 803.58"/><rect class="cls-10" x="465.62" y="671.08" width="125.65" height="129.25"/><polygon class="cls-11" points="556.78 733.04 542.65 733.04 541.7 619.19 556.78 605.26 556.78 733.04"/><polygon class="cls-11" points="589.41 733.04 575.28 733.04 575.28 605.26 593.74 612.77 589.41 733.04"/><polygon class="cls-11" points="524.16 733.04 510.02 733.04 510.02 605.26 529.19 613.76 524.16 733.04"/><rect class="cls-16" x="645.14" y="658.93" width="144.85" height="144.37"/><polygon class="cls-11" points="625.36 797.21 605.11 795.73 607.9 605.26 622.04 605.26 625.36 797.21"/><polygon class="cls-11" points="654.66 733.04 640.53 733.04 640.53 605.26 660.44 600.42 654.66 733.04"/><polygon class="cls-11" points="687.29 733.04 673.16 733.04 673.16 605.26 694.2 602.06 687.29 733.04"/><polygon class="cls-11" points="719.91 733.04 705.78 733.04 705.78 605.26 725.65 598.28 719.91 733.04"/><path class="cls-18" d="M429.64,728.47l2.46,93.21c65.77,3.36,114.17,3.49,128.17,2.6,15-1,23.51-3.85,31.65-5.18a16.71,16.71,0,0,0,6.38-2c1.89-1.2,3.3-3.45,2.83-5.64-.8-3.73-5.73-4.47-9.54-4.41q-35.46.55-70.9-1.27c-2.54-.13-5.76-.85-6.15-3.36-.43-2.76,3-4.35,5.73-4.91,31.19-6.35,64.26-3.28,94.22-14,2.73-1,5.56-2.18,7.28-4.51s1.75-6.14-.66-7.74c-1.62-1.09-3.75-.88-5.68-.63-33.34,4.39-66.72,10.79-100.29,9-1.76-.09-4-.61-4.24-2.34,3.64-5.68,10.86-7.65,17.43-9.14q39.69-9,79.68-16.72c5-1,10.18-2,14.39-4.85s7.2-8.18,5.8-13.08a4.12,4.12,0,0,0-.84-1.67c-1.09-1.22-3-1.19-4.59-1-12,1.1-23.73,3.62-35.47,6.13L522.11,751c-4.11.87-8.21,1.75-12.33,2.53a4.31,4.31,0,0,1-2.73-.09c-1.44-.74-1.54-2.92-.6-4.24a8.5,8.5,0,0,1,4-2.6l98.46-39.63c4-1.61,8.72-4.4,8.2-8.67-.41-3.4-4.11-5.37-7.49-5.94-6.19-1.06-12.49.63-18.5,2.43A442.46,442.46,0,0,0,544,711.83c-17.22,7.38-34.94,16-53.63,14.77a11.28,11.28,0,0,1-4.83-1.14,10.79,10.79,0,0,1-4.06-5c-5.68-11.77-5.52-24.77-5.52-24.77-.58-16.82-1.19-34.45-9.15-38a13.64,13.64,0,0,0-10.14-.07,14.31,14.31,0,0,0-4.79,3.49,20.18,20.18,0,0,0-3.42,5.58c-2,4.45-1.81,9.56-1.56,14.45l1.19,22.69c.32,6.21.58,12.76-2.24,18.31-3.15,6.17-12.5,6.2-16.17,6.36Z"/><path class="cls-18" d="M812.2,712.33l-2.46,93.21C744,808.89,695.57,809,681.57,808.13c-15-1-23.51-3.84-31.65-5.17a16.71,16.71,0,0,1-6.38-2c-1.89-1.2-3.3-3.45-2.83-5.64.8-3.73,5.73-4.47,9.54-4.41q35.46.56,70.9-1.27c2.54-.13,5.76-.85,6.15-3.36.43-2.76-3-4.35-5.73-4.91-31.19-6.36-64.26-3.28-94.22-14-2.73-1-5.56-2.18-7.28-4.51s-1.75-6.14.66-7.75c1.62-1.08,3.75-.87,5.68-.62,33.34,4.39,66.72,10.79,100.29,9,1.76-.09,4-.61,4.24-2.34-3.64-5.68-10.86-7.65-17.43-9.14q-39.69-9-79.68-16.72c-5-1-10.18-2-14.39-4.85s-7.2-8.18-5.8-13.08a4.06,4.06,0,0,1,.84-1.67c1.09-1.22,3-1.19,4.59-1,12,1.11,23.73,3.63,35.47,6.14l65.19,13.93c4.11.88,8.21,1.76,12.33,2.54a4.31,4.31,0,0,0,2.73-.09c1.44-.74,1.54-2.92.6-4.25a8.56,8.56,0,0,0-4-2.59l-98.46-39.63c-4-1.61-8.72-4.4-8.2-8.67.41-3.4,4.11-5.37,7.49-6,6.19-1,12.49.64,18.5,2.44a442.46,442.46,0,0,1,47.13,17.09c17.22,7.38,34.94,16,53.63,14.77a11.42,11.42,0,0,0,4.83-1.14,10.85,10.85,0,0,0,4.06-5c5.68-11.77,5.52-24.77,5.52-24.77.58-16.82,1.19-34.45,9.15-38a13.64,13.64,0,0,1,10.14-.07A14.31,14.31,0,0,1,790,645a20,20,0,0,1,3.42,5.58c2,4.45,1.81,9.56,1.56,14.45l-1.19,22.69c-.32,6.21-.58,12.76,2.24,18.31,3.15,6.17,12.5,6.2,16.17,6.36Z"/><g class="cls-23"><path id="Fill-58-2" data-name="Fill-58" class="cls-22" d="M888.43,652.85a23.75,23.75,0,1,1,23.64-23.74,23.69,23.69,0,0,1-23.64,23.74"/></g><g class="cls-23"><path id="Fill-87" class="cls-24" d="M943.6,605.72A23.75,23.75,0,1,1,920,629.47a23.69,23.69,0,0,1,23.64-23.75"/></g><g class="cls-25"><path id="Fill-94" class="cls-24" d="M175.33,170.56A22.35,22.35,0,0,0,156.2,181.3c-1.51,1.3-4,3.71-8,3.71s-6.52-2.4-8-3.68a22.32,22.32,0,1,0-32.95,29h-.12a3.33,3.33,0,0,1,.41.23c.22.17.45.33.68.49a11.32,11.32,0,0,1,4.88,9.11,11.1,11.1,0,0,1-4.93,9.13l-.5.35a3.39,3.39,0,0,1-.45.26h.12a22.37,22.37,0,1,0,27.41,0S129,225.5,129,220.14s4.75-9.77,8.23-12.93,6.62-6.37,11-6.37,6.93,2.63,8.37,4c4.69,6.17,10.9,10.21,18.79,10.21a22.26,22.26,0,1,0,0-44.51"/></g><g class="cls-26"><path id="Fill-116" class="cls-27" d="M905.39,303.53A22.35,22.35,0,1,1,883,281.27a22.29,22.29,0,0,1,22.35,22.26"/></g><g class="cls-28"><path id="Fill-128" class="cls-8" d="M877.07,216.89a22.3,22.3,0,0,0-22.35,22.25c0,.51,0,1,0,1.5.09,4.4-.32,17.45-7.42,23.71-8.61,7.6-24.15,7.72-24.15,7.72a22.26,22.26,0,1,0,22.36,22.25c0-.46,0-.92,0-1.37,0-4,.69-15.68,6.62-23,7.21-8.93,24.94-8.5,24.94-8.5l-.05,0h.05a22.26,22.26,0,1,0,0-44.52"/></g><rect class="cls-11" x="426.46" y="886.27" width="3.46" height="12.52"/><path class="cls-29" d="M494.61,557.6a79.1,79.1,0,0,0-8.85-3.14"/><path class="cls-30" d="M467.18,551.3a72,72,0,0,0-28.73,4.32c-21.28,7.91-39,26.15-44.79,47.27-11.74,42.47,32.14,68.74,18.53,99.77-11.45,26.1-47.66,17.35-59.74,46.19-10.57,25.25-.22,56.7,21.7,73.12s53,18.18,78,7.13c10.18-4.5,19.8-11.25,25.3-20.93s6-22.67-.69-31.54c-4.79-6.31-12.62-9.83-20.5-10.59s-15.82,1-23.24,3.77C419.14,775,406.12,784,399.09,797s-6.94,30.47,2.61,41.83c4.7,5.6,11.23,9.38,16.28,14.67.5.52,1,1.06,1.43,1.6"/><path class="cls-29" d="M424.42,863.11a67.69,67.69,0,0,1,3.26,8.8"/><polygon class="cls-13" points="735.86 563.77 487.89 570.91 489.68 540.67 740.03 538.42 735.86 563.77"/><circle class="cls-31" cx="213.99" cy="684.07" r="76.41"/><path class="cls-13" d="M196.63,653.32A40.46,40.46,0,0,0,239,720.25a14.33,14.33,0,1,0-17.45-16.57,14.57,14.57,0,0,0-.15,4.41,26.08,26.08,0,0,1-20.29-36.25,14,14,0,0,0,5.51,2.33,14.35,14.35,0,1,0-9.94-20.85Z"/><path class="cls-11" d="M737.28,553.34l-2.07-2c2.22-2.3,4.54-4.5,6.89-6.56l1.9,2.17C741.71,549,739.45,551.1,737.28,553.34Z"/><path class="cls-11" d="M806.47,888.06v-2.89a177.62,177.62,0,0,0,19-.81l.34,2.87A179.48,179.48,0,0,1,806.47,888.06Zm38.12-7-1.78-2.29a13.73,13.73,0,0,0,2-1.83c3.91-4.43,7.31-8.48,10.38-12.39l2.28,1.79c-3.11,4-6.54,8-10.49,12.51A17.09,17.09,0,0,1,844.59,881Zm24-30.52L866.16,849A120.53,120.53,0,0,0,875,832.18l2.66,1.13A123.47,123.47,0,0,1,868.62,850.5Zm-45.45-32.85a64.25,64.25,0,0,1-7.12-.39l.32-2.88a64.92,64.92,0,0,0,18.71-.71l.52,2.84A68.85,68.85,0,0,1,823.17,817.65Zm60.2-3-2.84-.52.07-.4a66.71,66.71,0,0,0,1.11-12.2c0-2-.09-4.11-.27-6.14l2.88-.26c.19,2.12.29,4.27.28,6.4a70.66,70.66,0,0,1-1.15,12.73Zm-86.14-3a43.8,43.8,0,0,1-7.2-4.76,37.82,37.82,0,0,1-7.53-8.34l2.41-1.61a34.91,34.91,0,0,0,6.94,7.71,42,42,0,0,0,6.73,4.45Zm57-1.09L853,807.94a65.23,65.23,0,0,0,15.64-10.3l1.93,2.15A67.86,67.86,0,0,1,854.2,810.55ZM883,784.69l-2.47-1.51a96.06,96.06,0,0,0,8.12-17.07l2.71,1A99.38,99.38,0,0,1,883,784.69Zm-106.92-4.82c0-.75-.07-1.5-.07-2.25a29.49,29.49,0,0,1,3.79-14.81c.4-.71.83-1.41,1.3-2.08l2.38,1.63c-.41.61-.81,1.24-1.17,1.88a26.71,26.71,0,0,0-3.41,13.38c0,.68,0,1.38.07,2.06Zm101.13-2.69a53.26,53.26,0,0,0-9.62-15.93l2.16-1.92a56.32,56.32,0,0,1,10.15,16.79ZM797.66,751l-1.19-2.63a65.69,65.69,0,0,1,18.92-5l.36,2.87A62.61,62.61,0,0,0,797.66,751Zm55.06-.73a56.12,56.12,0,0,0-18.1-4.44l.25-2.88a59.13,59.13,0,0,1,19,4.68Zm43.86-1.87-2.84-.55a101.39,101.39,0,0,0,1.88-18.81h2.89A104.65,104.65,0,0,1,896.58,748.41Zm-3-38.08a66.63,66.63,0,0,0-6.73-17.49l2.52-1.42a69.56,69.56,0,0,1,7,18.25ZM875.39,678a87.27,87.27,0,0,0-14.82-11.66l1.54-2.44a89.45,89.45,0,0,1,15.32,12Zm-31.64-20.41c-4.57-2-9.47-3.76-14.57-5.37a15.45,15.45,0,0,1-3.55-1.6l1.53-2.45a12.42,12.42,0,0,0,2.89,1.29c5.19,1.64,10.18,3.48,14.83,5.47Zm-21-25.32-2.85-.5c1-5.8,3.42-12.36,5.8-18.58l2.7,1C826.06,620.29,823.7,626.7,822.74,632.25Zm12.33-36.15-2.75-.9a94.15,94.15,0,0,0,4.28-18.4l2.87.33A96.83,96.83,0,0,1,835.07,596.1Zm.46-37.84a42,42,0,0,0-1.43-4.5A48.91,48.91,0,0,0,827,541.85l2.26-1.8a52.33,52.33,0,0,1,7.53,12.69,46.93,46.93,0,0,1,1.52,4.8Zm-76.22-22.43-1.47-2.49a82.91,82.91,0,0,1,17.84-7.91l.83,2.77A79.88,79.88,0,0,0,759.31,535.83ZM812.86,530l-1-.52A42.05,42.05,0,0,0,795,525.57l.09-2.89a44.82,44.82,0,0,1,18,4.19c.39.18.76.37,1.13.56Z"/><path class="cls-11" d="M780.11,891.6l-2.54-1.38c1.27-2.32,4.26-3.72,9.4-4.41l.39,2.87C783.31,889.22,780.87,890.2,780.11,891.6Z"/><path class="cls-11" d="M496.86,548a78.82,78.82,0,0,0-7.42-5.48l1.58-2.42a81.5,81.5,0,0,1,7.69,5.68Z"/><path class="cls-11" d="M145.68,846.83a102.51,102.51,0,0,1-5-18.34l2.85-.47a99.31,99.31,0,0,0,4.82,17.82Zm-2.4-37-2.86-.44A46.88,46.88,0,0,1,145,795.14c.64-1.27,1.37-2.54,2.15-3.78l2.44,1.55c-.73,1.16-1.41,2.35-2,3.54A43.92,43.92,0,0,0,143.28,809.8Zm18.41-30.58-1.92-2.17c1.38-1.22,2.85-2.46,4.48-3.78,3-2.42,6.28-4.94,10.36-7.91l1.7,2.34c-4,2.94-7.29,5.42-10.24,7.82C164.47,776.81,163,778,161.69,779.22Zm29.87-22.44-1.7-2.34c4.14-3,9.54-7,14.69-11.45l1.89,2.19C201.21,749.7,195.74,753.76,191.56,756.78Zm28.22-25.12-2.25-1.81A68.75,68.75,0,0,0,227,714.17l2.66,1.15A71.55,71.55,0,0,1,219.78,731.66Zm14.76-34.84-2.88-.26c.13-1.43.2-2.87.2-4.26a39.11,39.11,0,0,0-2.33-13.57l2.71-1a42,42,0,0,1,2.51,14.57C234.75,693.78,234.68,695.3,234.54,696.82Zm-15.18-32.77a59.35,59.35,0,0,0-15.49-9.63l1.19-2.63a62.33,62.33,0,0,1,16.23,10.1Zm-32.88-16.31c-5.59-2-11.37-4-16.76-6.38l-.87-.39,1.21-2.63.83.38c5.28,2.34,11,4.35,16.55,6.3Zm-34-16.56A72.74,72.74,0,0,1,139,617.77l2.29-1.76a70.1,70.1,0,0,0,13,12.88Zm-22.63-30.27a52.4,52.4,0,0,1-1.72-6.68,51.39,51.39,0,0,1-.86-9.38c0-1,0-2,.08-3l2.89.16c-.05.93-.08,1.87-.08,2.8a49.22,49.22,0,0,0,.81,8.85,49.78,49.78,0,0,0,1.62,6.3Zm4.35-36.65-2.69-1a78,78,0,0,1,9.08-16.75l2.36,1.66A75.52,75.52,0,0,0,134.23,564.26Zm20.94-30-2-2.13a127.63,127.63,0,0,1,14.9-11.7l1.63,2.39A125.17,125.17,0,0,0,155.17,534.31Zm317.81,0a107.22,107.22,0,0,0-17.84-4.79l.52-2.85A110.9,110.9,0,0,1,474,531.55Zm-36.29-7.08c-5.29-.4-11-.67-18.66-.86l.08-2.89c7.66.2,13.46.46,18.8.86Zm-37.41-1.27c-7.6-.2-13.4-.47-18.81-.86l.21-2.89c5.37.4,11.13.66,18.67.86Zm-37.57-3.08a127.7,127.7,0,0,1-18.4-4.47l.89-2.75a126.46,126.46,0,0,0,18,4.37Zm-176.07-9.64-1.41-2.53c5.53-3.07,11.25-6,16.63-8.78l1.32,2.57C196.82,507.2,191.12,510.14,185.64,513.19Zm140.13-1.83c-5.82-2.55-11.56-5.22-17.07-7.94l1.28-2.59c5.47,2.7,11.17,5.35,16.95,7.88ZM218.85,495.79l-1.37-2.55c5.48-2.92,11-6,16.39-9l1.43,2.51C229.88,489.8,224.35,492.85,218.85,495.79ZM292,494.66c-5.55-3.1-11-6.35-16.18-9.64l1.55-2.44c5.15,3.27,10.54,6.48,16,9.56ZM251.5,477.19,250,474.72l5.84-3.58c-3.58-2.72-7.08-5.5-10.44-8.31l1.86-2.22c3.6,3,7.35,6,11.21,8.89q3.72-2.33,7.4-4.7l1.56,2.44c-2.14,1.37-4.3,2.75-6.47,4.11l1,.74-1.7,2.33L258.33,473Q254.93,475.12,251.5,477.19Zm31.61-20.34-1.63-2.39c5.12-3.49,10.28-7.11,15.31-10.75l1.7,2.34C293.43,449.71,288.25,453.34,283.11,456.85Zm-51.69-6.66c-4.55-4.42-8.91-9-13-13.69l2.18-1.9c4,4.6,8.33,9.15,12.81,13.52Zm82.15-15.36-1.76-2.29q2.58-2,5.13-4c3.52-2.74,6.64-5.24,9.54-7.63l1.84,2.23c-2.92,2.41-6.06,4.92-9.6,7.68C317,432.19,315.29,433.51,313.57,434.83Zm-106.9-13.09c-3.69-5.09-7.17-10.4-10.35-15.79l2.49-1.47C202,409.79,205.38,415,209,420Zm135.79-11-2-2.1a167.79,167.79,0,0,0,12.78-13.49l2.21,1.86A168.42,168.42,0,0,1,342.46,410.7ZM187.51,389.24c-2.68-5.74-5.08-11.62-7.14-17.5l2.73-.95a184.05,184.05,0,0,0,7,17.22Zm179.08-7.61-2.46-1.5a102.07,102.07,0,0,0,5.55-10.37c.93-2,1.8-4.1,2.59-6.2l2.71,1c-.82,2.16-1.72,4.31-2.68,6.38A102.83,102.83,0,0,1,366.59,381.63Zm-191.53-28A169,169,0,0,1,171.78,335l2.87-.34a163.27,163.27,0,0,0,3.23,18.3Zm205-7.3-2.84-.53a124.66,124.66,0,0,0,2-18.42l2.89.11A127.64,127.64,0,0,1,380.07,346.3ZM173.6,316.11l-2.89,0A147.57,147.57,0,0,1,172,297.21l2.86.39A145.3,145.3,0,0,0,173.6,316.11Zm205.16-7.32c-.51-6-1.36-12.15-2.53-18.43l2.84-.53c1.19,6.37,2.05,12.67,2.57,18.72ZM178.69,279.46l-2.77-.8a133.64,133.64,0,0,1,6.53-17.78l2.64,1.19A131.17,131.17,0,0,0,178.69,279.46ZM372,272.21a183.41,183.41,0,0,0-5.87-17.65l2.69-1.06a188.55,188.55,0,0,1,6,17.94ZM193.87,245.74l-2.44-1.54a134,134,0,0,1,11.21-15.27l2.2,1.87A133.7,133.7,0,0,0,193.87,245.74Zm164.49-8a119.19,119.19,0,0,0-10-15.57l2.29-1.75a121.48,121.48,0,0,1,10.27,15.94ZM217.83,217.59l-1.9-2.17a121.45,121.45,0,0,1,15.19-11.35l1.54,2.45A118.06,118.06,0,0,0,217.83,217.59Zm117.95-8.94a75.41,75.41,0,0,0-15.16-10.32l1.31-2.58a78.38,78.38,0,0,1,15.75,10.73ZM249.08,198,248,195.35a104.38,104.38,0,0,1,18.14-5.62l.6,2.83A102,102,0,0,0,249.08,198Zm54.26-5.82a81.49,81.49,0,0,0-17-1.74H285l-.05-2.89h1.4A84,84,0,0,1,304,189.38Z"/><path class="cls-11" d="M157.37,872.81c-1.59-3.11-3-5.87-4.2-8.44l2.6-1.25c1.23,2.55,2.59,5.29,4.17,8.38Z"/><path class="cls-10" d="M682.94,560.27c-.73-1.33-1.48-2.63-2.21-3.89s-1.63-2.84-2.41-4.3l2.54-1.37c.77,1.42,1.55,2.78,2.38,4.23.73,1.27,1.49,2.58,2.23,3.94Z"/><path class="cls-10" d="M1072.49,830.93c-2-2-4-3.95-5.92-5.86-2.44-2.38-5-4.85-7.4-7.35l2.07-2c2.42,2.48,4.93,4.93,7.35,7.31,2,1.91,4,3.9,6,5.88Zm-25.66-27.59c-.81-1.12-1.6-2.27-2.35-3.41a93.3,93.3,0,0,1-7.1-13.09l2.65-1.17a89.59,89.59,0,0,0,6.87,12.68c.72,1.1,1.49,2.21,2.28,3.3Zm-15.64-34.43a142.52,142.52,0,0,1-3.44-18.62l2.87-.34a140.35,140.35,0,0,0,3.37,18.24Zm-4.57-37.49v-.72c0-6,.31-12.08.91-18.15l2.88.28c-.6,6-.9,12-.9,17.87v.71Zm6.54-37-2.84-.57c1.14-5.66,2.54-11.25,4.16-16.63l.51-1.68,2.76.86c-.17.55-.34,1.1-.5,1.66C1035.65,683.36,1034.28,688.87,1033.16,694.44Zm10.89-35.53-2.68-1.1c2.32-5.67,5-11.44,7.82-17.15l2.59,1.3C1048.94,647.6,1046.34,653.3,1044.05,658.91Zm16.67-33.31-2.49-1.47c3.07-5.21,6.35-10.43,10-15.94l2.41,1.6C1067,615.26,1063.77,620.43,1060.72,625.6Zm20.57-31.17-2.35-1.69c3.29-4.57,6.84-9.37,11.16-15.1l2.31,1.74C1088.1,585.09,1084.57,589.88,1081.29,594.43Zm22.43-30-2.32-1.72c4.32-5.83,7.75-10.67,10.78-15.25l2.41,1.6C1111.53,553.66,1108.07,558.54,1103.72,564.41ZM672.13,534a83.93,83.93,0,0,1-.91-13c0-1.91,0-3.94.14-6l2.89.13c-.09,2-.14,4-.14,5.89a82,82,0,0,0,.87,12.53Zm452.17-1.12-2.56-1.36c1.82-3.42,3.5-6.87,5-10.26,1-2.16,1.87-4.39,2.72-6.62l2.7,1c-.87,2.27-1.8,4.55-2.78,6.75C1127.86,525.85,1126.15,529.37,1124.3,532.85Zm-192-29.72a37.32,37.32,0,0,1-16.13-3.63c-.76-.36-1.53-.75-2.29-1.17l1.38-2.54c.71.39,1.44.76,2.15,1.1a34.51,34.51,0,0,0,14.89,3.35h.22v2.89Zm18.88-4.8-1.35-2.55a42.58,42.58,0,0,0,13.7-11.67l2.29,1.77A45.42,45.42,0,0,1,951.21,498.33Zm186.59-.75-2.8-.7a177.42,177.42,0,0,0,3.51-18.25l2.86.4A178.43,178.43,0,0,1,1137.8,497.58Zm-461.74-1-2.87-.4c.32-2.32.69-4.76,1.09-7.26.62-3.8,1.38-7.61,2.28-11.32l2.81.68c-.88,3.64-1.63,7.37-2.23,11.1C676.74,491.87,676.38,494.29,676.06,496.59Zm223-10.28a85.93,85.93,0,0,1-11-15.54l2.53-1.41a82.12,82.12,0,0,0,10.62,15Zm75.56-17.49-2.76-.86A76.16,76.16,0,0,0,975,449.88l2.88.17A78.85,78.85,0,0,1,974.57,468.82Zm-289.68-8.23-2.69-1a149.36,149.36,0,0,1,7.89-17.2l2.54,1.37A148.76,148.76,0,0,0,684.89,460.59Zm458.16-.37-2.89-.12c.12-2.88.19-5.82.19-8.74,0-3.25-.08-6.58-.23-9.88l2.88-.13c.16,3.34.24,6.71.24,10C1143.24,454.33,1143.17,457.3,1143.05,460.22Zm-262.86-6.73a135.56,135.56,0,0,1-5.13-18.24l2.83-.59a133.13,133.13,0,0,0,5,17.85Zm94.21-22.08a115.3,115.3,0,0,0-3.55-18.15l2.78-.79a118,118,0,0,1,3.65,18.61Zm-272-3.49L700,426.26a175.18,175.18,0,0,1,11.67-14.87l2.17,1.9A176.84,176.84,0,0,0,702.38,427.92Zm436.1-5c-.8-6.13-1.86-12.31-3.16-18.36l2.83-.6c1.31,6.13,2.39,12.38,3.2,18.59ZM872.42,416.5c-.19-2.74-.28-5.47-.28-8.12a103.36,103.36,0,0,1,.56-10.85l2.87.3a100.66,100.66,0,0,0-.54,10.55c0,2.58.09,5.25.28,7.92ZM726.74,399.83l-2-2.08c1.87-1.81,3.58-3.41,4.87-4.61,2.95-2.74,6-5.43,9.17-8l1.83,2.24c-3.09,2.53-6.13,5.18-9,7.88C730.3,396.45,728.6,398,726.74,399.83Zm237.68-3.92a114.06,114.06,0,0,0-9.13-16.08l2.39-1.63A117.32,117.32,0,0,1,967,394.69Zm166.26-9.38c-1.82-6-3.89-11.9-6.16-17.57l2.69-1.08c2.3,5.75,4.4,11.74,6.23,17.81ZM879.37,379.8l-2.75-.87A106.79,106.79,0,0,1,884,361.44l2.56,1.36A103.89,103.89,0,0,0,879.37,379.8Zm-123.81-3.5-1.62-2.4c5.12-3.43,10.55-6.73,16.13-9.8l1.39,2.53C766,369.66,760.6,372.92,755.56,376.3Zm188.1-10.84a100.81,100.81,0,0,0-13.94-12.11l1.69-2.35a104,104,0,0,1,14.33,12.46Zm-155.53-7.17-1.2-2.63c5.52-2.51,11.38-4.93,17.42-7.21l1,2.71C799.39,353.41,793.59,355.81,788.13,358.29ZM1116.8,352c-.88-1.7-1.8-3.41-2.73-5.08-2.1-3.75-4.33-7.44-6.65-11l2.42-1.58c2.36,3.59,4.62,7.34,6.75,11.15,1,1.7,1.88,3.44,2.78,5.16ZM896.42,347.1l-2.34-1.7q2.22-3.06,4.69-6.17c-.86-.21-1.73-.41-2.6-.59l.61-2.83c1.34.28,2.67.6,4,.94q2.44-3,5.17-6l2.16,1.92q-2.24,2.53-4.27,5c3.16.93,6.27,2,9.28,3.23.6.24,1.18.49,1.77.74l-1.15,2.65-1.7-.71a95.61,95.61,0,0,0-10.2-3.47Q898.95,343.6,896.42,347.1Zm-73.41-2-.86-2.76c6.3-2,12.43-3.61,18.22-4.9l.63,2.82C835.29,341.52,829.24,343.14,823,345.08Zm36.31-7.93-.31-2.87a131.6,131.6,0,0,1,18.93-.75l-.1,2.89A130.23,130.23,0,0,0,859.32,337.15ZM1096.44,321a158.27,158.27,0,0,0-12.59-13.65l2-2.09a159.46,159.46,0,0,1,12.81,13.91ZM921,319.1l-2-2.06c4.61-4.55,9.3-8.83,13.93-12.71l1.86,2.21C930.15,310.38,925.52,314.6,921,319.1Zm148.73-23.74a122.69,122.69,0,0,0-15.68-9.84l1.34-2.56A125.63,125.63,0,0,1,1071.4,293Zm-120.16-.08-1.63-2.39a152.51,152.51,0,0,1,16.26-9.69l1.31,2.58A147.54,147.54,0,0,0,949.52,295.28Zm33-16.62-.89-2.75a97.8,97.8,0,0,1,18.56-4.07l.33,2.87A95,95,0,0,0,982.54,278.66Zm54.42-.26a91.68,91.68,0,0,0-18-3.79l.3-2.87a93.83,93.83,0,0,1,18.6,3.9Z"/><path class="cls-10" d="M1096.55,863.6l-6.5-11a82.79,82.79,0,0,0-5.15-7.66l2.31-1.74q.36.46.69.93l2.21-.71Z"/><circle class="cls-12" cx="1106.71" cy="545.91" r="66.04"/><path class="cls-7" d="M820.79,874.88a17.33,17.33,0,0,0-10.23,3.33,22.12,22.12,0,0,0-38.34-1.13,18,18,0,1,0-10.88,32.36c5.3,0,54.09.3,59.45.3a17.43,17.43,0,1,0,0-34.86Z"/><path class="cls-11" d="M410.51,868.64l0,0A25.08,25.08,0,0,1,446,869l-2.45,2.4a21.66,21.66,0,0,0-30.61-.31Z"/><path class="cls-11" d="M403.38,861.37A33.85,33.85,0,0,1,428,851.65a35.5,35.5,0,0,1,24.66,10.74l-2.44,2.4A32.08,32.08,0,0,0,428,855.08a30.43,30.43,0,0,0-22.18,8.73Z"/><path class="cls-11" d="M396.06,853.89c17.27-16.95,45.7-16.1,63.37,1.9L457,858.2c-16.34-16.66-42.6-17.49-58.52-1.86Z"/><circle class="cls-11" cx="427.71" cy="881.4" r="9.22"/><polygon class="cls-13" points="83.42 957.44 82.79 953.18 68.12 955.92 66.41 944.55 76.82 942.49 71.88 911.3 29.12 919.76 34.06 950.96 62.61 945.31 64.93 960.85 64.94 960.85 64.94 960.9 83.42 957.44"/><polygon class="cls-13" points="14.57 915.56 21.92 961.94 32.73 959.81 25.38 913.43 14.57 915.56"/><polygon class="cls-15" points="244.11 1103.49 81.75 1103.49 81.75 843.98 249 866.02 244.11 1103.49"/><polygon class="cls-22" points="123.09 1090.05 108.81 1090.05 108.81 903.18 125.54 914.52 123.09 1090.05"/><polygon class="cls-22" points="169.6 1092.57 155.32 1092.57 155.32 905.71 172.33 907.6 169.6 1092.57"/><polygon class="cls-22" points="214.14 1090.05 199.86 1090.05 199.1 909.48 214.14 903.18 214.14 1090.05"/><polygon class="cls-3" points="985.25 1102.19 973.73 801 1156.78 808.51 1160.23 1099.19 985.25 1102.19"/><polygon class="cls-8" points="939.25 1020.11 1132.66 1006.59 1125.75 1101.98 938.1 1101.98 939.25 1020.11"/><polygon class="cls-3" points="962.62 1051.63 962.95 1100.05 1095.02 1100.05 1098.32 1043.73 962.62 1051.63"/><rect class="cls-11" x="58.87" y="1098.56" width="1125.52" height="7.08"/><g class="cls-32"><path id="Fill-98" class="cls-14" d="M1081.93,752.86a22.29,22.29,0,0,0-22.35,22.25c0,.5,0,1,.05,1.49.08,4.4-.32,17.45-7.42,23.72-8.61,7.59-24.15,7.71-24.15,7.71a22.25,22.25,0,1,0,22.36,22.25c0-.46,0-.91-.05-1.36,0-4,.69-15.68,6.62-23,7.2-8.92,24.94-8.5,24.94-8.5l0,0h0a22.26,22.26,0,1,0,0-44.51"/></g><circle class="cls-20" cx="1102.73" cy="544.56" r="39.28"/><path class="cls-33" d="M1074.6,518.3c13.31,23.06,33.07,40.15,60.6,50.06"/><path class="cls-33" d="M1070.87,567C1096,553.61,1118,538,1128,514.13"/><circle class="cls-11" cx="1075.81" cy="521.21" r="7.9"/><circle class="cls-11" cx="1127.08" cy="517.25" r="8.34"/><circle class="cls-11" cx="1102.21" cy="548.05" r="8.34"/><circle class="cls-11" cx="1135.15" cy="567.32" r="8.34"/><circle class="cls-11" cx="1073.23" cy="567.81" r="8.34"/><path class="cls-22" d="M995.34,857.75c0,.88,4.17,139.65,4.17,139.65l22.4-2.19L1021,857.32Z"/><path class="cls-22" d="M1052.92,857.26c0,2,3.29,137.23,3.29,137.23l23.72-.88-2.2-139.42Z"/><path class="cls-22" d="M1110.28,855.17c-.44,2.42.44,135.48.44,135.48l26.57-2.2L1134.65,858Z"/></g></svg>