<svg xmlns="http://www.w3.org/2000/svg" xmlns:xlink="http://www.w3.org/1999/xlink" viewBox="0 0 1251.46 1241.03"><defs><style>.cls-1,.cls-14{fill:#fff;}.cls-1,.cls-11,.cls-12,.cls-18,.cls-22,.cls-5,.cls-7,.cls-9{fill-rule:evenodd;}.cls-2{fill:#6fc0eb;}.cls-22,.cls-3{fill:#238da3;}.cls-4{mask:url(#mask);}.cls-17,.cls-5{fill:#fccc39;}.cls-6{mask:url(#mask-2-2);}.cls-19,.cls-7{fill:#fe3a57;}.cls-8{mask:url(#mask-3);}.cls-21,.cls-9{fill:#27a6de;}.cls-10{mask:url(#mask-4);}.cls-11,.cls-13{fill:#73c49d;}.cls-12,.cls-23{fill:#eb6d52;}.cls-15{fill:#1980b9;}.cls-16,.cls-18{fill:#333;}.cls-20{fill:#e33a60;}</style><mask id="mask" x="932.19" y="-71.18" width="1596.2" height="1844.91" maskUnits="userSpaceOnUse"><g id="mask-2"><polygon id="path-1" class="cls-1" points="2528.39 1773.73 932.19 1773.73 932.19 -71.18 2528.39 -71.18 2528.39 1773.73"/></g></mask><mask id="mask-2-2" x="-1245.49" y="-3.34" width="1699.14" height="1622.42" maskUnits="userSpaceOnUse"><g id="mask-2-3" data-name="mask-2"><polygon id="path-1-2" data-name="path-1" class="cls-1" points="-1245.49 1013.21 -721.29 -3.34 453.65 602.53 -70.55 1619.08 -1245.49 1013.21"/></g></mask><mask id="mask-3" x="466.64" y="-1050.97" width="1429.93" height="1567.97" maskUnits="userSpaceOnUse"><g id="mask-2-4" data-name="mask-2"><polygon id="path-1-3" data-name="path-1" class="cls-1" points="758.29 -1050.97 1896.57 -798.64 1604.93 517 466.64 264.68 758.29 -1050.97"/></g></mask><mask id="mask-4" x="-606.48" y="-590.03" width="2391.75" height="2452.98" maskUnits="userSpaceOnUse"><g id="mask-2-5" data-name="mask-2"><polygon id="path-1-4" data-name="path-1" class="cls-1" points="1785.27 935.82 465.12 1862.95 -606.48 337.11 713.68 -590.03 1785.27 935.82"/></g></mask></defs><title>developers</title><g id="developers"><path class="cls-2" d="M1092.92,982.14c-33.38-57.11-52.68-127.57-54.37-198.42-.71-30,1.64-69.91,14.1-108.43-22.41-19.2-39.21-45.95-50.49-68.14-28.3-55.68-43.25-121.83-43.23-191.3q0-8.52.3-17a232.79,232.79,0,0,1-69.38-14.4,211.41,211.41,0,0,1-73.39-46.43,222.08,222.08,0,0,1-39-51.49c-62.25,47.05-133.67,77.76-208.36,89.5q4.71,23.82,7.86,48.21c5.87,45.62,5.65,81.56-.72,113.1-6.7,33.18-21.44,66.44-43.81,98.84a313.28,313.28,0,0,1-64.87,69.16,281,281,0,0,1-77.94,43.27c-1.56.56-3.11,1.1-4.67,1.63-.24,1.6-.49,3.19-.74,4.77-3.49,22.5-7.09,45.76-8.66,69-1.29,19.07-1.58,43.57,7.7,63.86l-1.31.6c-9.42-20.59-9.14-45.32-7.84-64.56,1.58-23.25,5.19-46.54,8.68-69.07l.63-4a248.89,248.89,0,0,1-78.18,12.85h-.16A231,231,0,0,1,221,748c-15.94-6.2-38.94-17-54.58-38.84-13.52-18.91-20.12-45-18.57-73.49,1.47-27.16,10.4-53.82,24.48-73.16a118.2,118.2,0,0,1,53.59-41,129.22,129.22,0,0,1,63.74-6.84c22.2,3.13,53.27,13,75.15,42.08,11.85,15.75,20.16,36.13,24.72,60.58,3.92,21,5,44.51,3.23,69.8-1.45,20.61-4.48,41.26-7.58,61.36,56.11-19.18,108-58,146-113.05,22.26-32.24,36.92-65.32,43.58-98.3,6.34-31.39,6.56-67.18.7-112.63q-3.13-24.36-7.85-48.18-3.51.54-7,1a380.19,380.19,0,0,1-51.85,3.74c-35.18,0-67-5.66-96.37-17A227.26,227.26,0,0,1,293.09,256.47c-13.25-25.53-20.8-57-20.71-86.21.09-32.43,9.71-59.45,27.08-76.08C317.34,77.06,339.71,74,355.33,74.42c34.05,1,67.09,17.49,98.21,49.18,26.38,26.87,50.56,64.08,69.92,107.62a682.08,682.08,0,0,1,45.33,143.43c74.55-11.7,145.83-42.37,208-89.36a246.49,246.49,0,0,1-12.81-27.23c-12.86-32.28-18.76-66.92-17.08-100.17,1.81-35.84,16.77-71.65,37.23-89.1,10.59-9,22-13,34-11.64,12.53,1.36,24,8.78,33.28,21.46,16.19,22.21,23,57,16.92,86.53-10.25,49.85-45.48,84.19-71.09,105.68q-9.19,7.71-18.67,14.92A220.71,220.71,0,0,0,817.46,337c37.25,36.17,87.22,57.37,141.83,60.42,2.43-62.72,17.16-122.14,43-172.85,17.54-34.45,47.33-77.65,89.62-87.86,18.43-4.45,38.82-.19,55.94,11.68a81,81,0,0,1,34,56.85c2.37,19.51-1.38,41.39-11.16,65a204,204,0,0,1-83.56,97.47c-34,20.5-74.89,31.69-115.23,31.5q-5.46,0-10.86-.29c-2.61,72.79,11.55,146.69,42.47,207.51,11.14,21.92,27.69,48.3,49.69,67.32A213.4,213.4,0,0,1,1069,637.2c24.93-44.93,66-71.35,104.53-67.31,15.11,1.58,30.65,10.71,40.55,23.82,6.2,8.21,13,21.63,9.94,38.91-2.56,14.65-11.76,27.71-28.13,39.94-36.73,27.45-77.4,35.55-111.59,22.23a110.09,110.09,0,0,1-30.47-18.49C1041.6,714.46,1039.3,754,1040,783.69c1.68,70.6,20.91,140.82,54.16,197.72ZM270.68,514.73c-39,0-74.42,17.43-97.14,48.6-30,41.14-32.68,107.52-5.91,145,15.42,21.56,38.16,32.2,53.93,38.33,52.26,20.32,109,20.12,162.11,2.35,3.14-20.3,6.22-41.18,7.68-62,3.85-54.62-6-100.58-27.65-129.41s-52.27-38.42-74.2-41.52A135.42,135.42,0,0,0,270.68,514.73Zm783.64,160.09a108.69,108.69,0,0,0,30.52,18.62c33.71,13.14,73.87,5.11,110.2-22,16.28-12.17,25-24.57,27.57-39,2.93-16.76-3.64-29.8-9.67-37.79-9.67-12.8-24.82-21.71-39.56-23.26-38-4-78.46,22.16-103.1,66.58A212.57,212.57,0,0,0,1054.32,674.82ZM961,397.53c3.58.18,7.19.27,10.81.29H973c87.15,0,164.14-50.17,196.35-128.08,9.68-23.41,13.4-45,11-64.31A79.5,79.5,0,0,0,1147,149.6c-16.78-11.64-36.74-15.82-54.77-11.47-41.76,10.08-71.27,52.94-88.67,87.11C977.59,276.25,963.41,336.47,961,397.53ZM352.6,75.83c-15.15,0-35.62,3.58-52.14,19.4-17.08,16.35-26.54,43-26.64,75-.08,29,7.41,60.2,20.56,85.54A225.78,225.78,0,0,0,412.93,362.66c42.92,16.64,91.17,21,147.5,13.22,2.32-.32,4.63-.65,6.93-1a680.34,680.34,0,0,0-45.22-143.06c-19.29-43.38-43.37-80.45-69.63-107.2C421.66,93.2,389,76.8,355.29,75.87,354.42,75.84,353.52,75.83,352.6,75.83ZM813.66,58.35c-10,0-19.64,3.87-28.64,11.54-20.18,17.21-34.94,52.6-36.73,88.07-2.2,43.52,8.65,88.26,29.55,126.5q9.38-7.12,18.45-14.75c25.44-21.35,60.45-55.45,70.6-104.86,6-29.17-.7-63.49-16.67-85.39-9-12.34-20.15-19.56-32.27-20.88A41.4,41.4,0,0,0,813.66,58.35Z"/><rect class="cls-3" x="1105.24" y="585.68" width="17.57" height="66.94" transform="translate(-159.75 575.53) rotate(-27.1)"/><path class="cls-3" d="M1129.83,609.81a59.82,59.82,0,0,0,80.08,27.28l-17.79-36.18,28.05-29.85a9.16,9.16,0,0,0,1.45.78,9.05,9.05,0,1,0-5.52-8.58l-39.63,5.83-19.35-39.36A59.82,59.82,0,0,0,1129.83,609.81ZM1177.92,572l38.64-5.67a9.05,9.05,0,0,0,1.33,2.56l-27.25,29Z"/><g class="cls-4"><g id="Fill-111"><path class="cls-5" d="M1117.23,215.16a30.12,30.12,0,0,1,30.19,30.05c0,.68,0,1.36-.08,2-.11,6,.43,23.57,10,32C1169,289.51,1190,289.69,1190,289.69a30.05,30.05,0,1,1-30.2,30.05c0-.62,0-1.24.07-1.84-.07-5.37-.94-21.18-8.94-31.08-9.75-12.07-33.69-11.49-33.69-11.49l.06-.05h-.06a30.06,30.06,0,1,1,0-60.12"/></g></g><g class="cls-6"><g id="Fill-111-2" data-name="Fill-111"><path class="cls-7" d="M210.53,626.34a21.59,21.59,0,0,1-29.06,9.36c-.43-.23-.85-.46-1.26-.72-3.75-2-15.15-7.47-23.69-4.13-10.35,4-17.35,17.35-17.35,17.35A21.54,21.54,0,1,1,130,619.1c.4.2.78.43,1.15.65,3.44,1.72,13.8,6.36,22.73,4.51,10.89-2.24,18.38-17.68,18.38-17.68v.06l0,0a21.54,21.54,0,1,1,38.29,19.74"/></g></g><g class="cls-8"><g id="Fill-118"><path class="cls-9" d="M900.87,141a22.05,22.05,0,0,1-16.14-14.43c-1.17-1.57-3.09-4.44-6.94-5.29s-6.79.92-8.49,1.85a22.08,22.08,0,0,1-37.53-19.93,21.87,21.87,0,0,1,12-15l-.11,0,.44-.15.76-.32a11.13,11.13,0,0,0,6.65-7.73,11,11,0,0,0-2.8-9.85l-.41-.45a3.19,3.19,0,0,0-.37-.34l.11,0a22.06,22.06,0,1,1,26.41,5.86s-6.48,3-7.63,8.15,2.5,10.44,5.17,14.23,5,7.53,9.21,8.46,7.23-1.06,8.92-2.08c5.83-4.92,12.68-7.51,20.28-5.83a22,22,0,1,1-9.5,42.88"/></g></g><g class="cls-10"><g id="Fill-96"><path class="cls-11" d="M329.87,256.26a30.51,30.51,0,1,0,7.52-42.4,30.46,30.46,0,0,0-7.52,42.4"/></g></g><g class="cls-10"><g id="Fill-127"><path class="cls-12" d="M290.25,199.84a30.51,30.51,0,1,0,7.51-42.4,30.46,30.46,0,0,0-7.51,42.4"/></g></g><polygon class="cls-13" points="762.28 1147.58 1082.75 1147.58 1097.23 956.48 762.28 960.99 762.28 1147.58"/><polygon class="cls-14" points="969.75 981.64 965.51 1126.45 781.98 1129.3 785.96 985.74 969.75 981.64"/><polygon class="cls-15" points="183.3 1147.58 741.63 1147.58 741.63 960.99 180.45 939.39 183.3 1147.58"/><polygon class="cls-16" points="910.57 1064.8 823.19 1064.8 823.19 1037.02 824.63 1037.02 824.63 1063.36 909.12 1063.36 909.12 1038.74 910.57 1038.74 910.57 1064.8"/><polygon class="cls-16" points="314.62 805.67 573.37 934.81 172.16 927.33 314.62 805.67"/><polygon class="cls-3" points="996.58 1098.8 1039.66 1098.8 1039.66 1015.12 992.13 1012.63 996.58 1098.8"/><polygon class="cls-17" points="250.24 1092.27 293.32 1092.27 293.32 1008.59 245.79 1006.1 250.24 1092.27"/><polygon class="cls-13" points="352.08 1076.6 394.45 1072.8 394.45 998.38 352.08 994.47 352.08 1076.6"/><polygon class="cls-18" points="213.16 885.48 211.88 877.81 182.38 882.74 178.96 862.28 199.89 858.58 189.94 802.43 103.96 817.66 113.91 873.8 171.3 863.64 175.98 891.61 175.99 891.61 176 891.69 213.16 885.48"/><rect class="cls-16" x="81.93" y="807.54" width="22.07" height="84.76" transform="translate(-146.78 29.23) rotate(-10.04)"/><polygon class="cls-18" points="1100.87 979.91 1101.74 974.7 1121.78 978.06 1124.11 964.15 1109.89 961.64 1116.64 923.5 1175.05 933.84 1168.3 971.98 1129.31 965.08 1126.13 984.08 1126.13 984.08 1126.12 984.14 1100.87 979.91"/><rect class="cls-16" x="1153.73" y="948.26" width="57.58" height="14.99" transform="translate(35.21 1953.51) rotate(-79.96)"/><circle class="cls-3" cx="82.34" cy="1061.94" r="61.6"/><rect class="cls-16" x="76.28" y="1084.73" width="11.39" height="64.81" transform="translate(163.96 2234.27) rotate(-180)"/><polygon class="cls-14" points="712.19 987.21 712.19 1123.01 433.03 1123.01 429.7 975.36 712.19 987.21"/><rect class="cls-15" x="456.05" y="1006.27" width="109.2" height="62.91" transform="translate(1021.3 2075.46) rotate(-180)"/><rect class="cls-15" x="483.94" y="1072.74" width="55.19" height="4.75" transform="translate(1023.08 2150.23) rotate(-180)"/><rect class="cls-13" x="470.47" y="1078.86" width="138.34" height="30.62" transform="translate(1079.28 2188.33) rotate(-180)"/><rect class="cls-15" x="593.5" y="1108.59" width="6.59" height="10.15" transform="translate(1193.58 2227.32) rotate(-180)"/><rect class="cls-15" x="474.21" y="1108.59" width="6.59" height="10.15" transform="translate(955.01 2227.32) rotate(-180)"/><rect class="cls-15" x="270.48" y="1004.74" width="1.45" height="87.53" transform="translate(-13.69 3.64) rotate(-0.75)"/><rect class="cls-15" x="377.97" y="991.77" width="1.45" height="87.53" transform="translate(-13.5 5.04) rotate(-0.75)"/><polygon class="cls-17" points="581.22 933.46 1095.4 944.38 1095.4 772.04 581.22 764.92 581.22 933.46"/><polygon class="cls-15" points="746.03 886.76 784.96 886.76 784.96 844.27 742.65 841.77 746.03 886.76"/><polygon class="cls-14" points="1069.05 793.29 1066.2 921.12 836.43 917.77 839.26 796.8 1069.05 793.29"/><polygon class="cls-19" points="1046 552.76 1156.62 756.41 859.86 756.41 1046 552.76"/><path d="M887.72,882.46a28.66,28.66,0,0,0,14.53,4.1c8.29,0,13.14-4.38,13.14-10.71,0-5.87-3.36-9.23-11.84-12.49-10.24-3.63-16.58-8.94-16.58-17.79,0-9.78,8.11-17.05,20.31-17.05,6.43,0,11.09,1.49,13.88,3.07l-2.23,6.62a25,25,0,0,0-11.93-3c-8.57,0-11.83,5.12-11.83,9.41,0,5.87,3.82,8.75,12.48,12.11,10.62,4.1,16,9.22,16,18.45,0,9.68-7.18,18.07-22,18.07-6.05,0-12.67-1.77-16-4Z"/><rect x="904.76" y="818.69" width="6.32" height="13.06"/><rect x="904.76" y="889.07" width="6.32" height="13.62"/><path d="M945.22,882.46a28.73,28.73,0,0,0,14.54,4.1c8.29,0,13.13-4.38,13.13-10.71,0-5.87-3.35-9.23-11.83-12.49-10.25-3.63-16.58-8.94-16.58-17.79,0-9.78,8.1-17.05,20.31-17.05,6.43,0,11.08,1.49,13.88,3.07l-2.24,6.62a25,25,0,0,0-11.92-3c-8.57,0-11.84,5.12-11.84,9.41,0,5.87,3.82,8.75,12.49,12.11,10.62,4.1,16,9.22,16,18.45,0,9.68-7.17,18.07-22,18.07-6.06,0-12.67-1.77-16-4Z"/><rect x="962.26" y="818.69" width="6.32" height="13.06"/><rect x="962.26" y="889.07" width="6.32" height="13.62"/><path d="M1002.73,882.46a28.66,28.66,0,0,0,14.53,4.1c8.29,0,13.14-4.38,13.14-10.71,0-5.87-3.36-9.23-11.83-12.49-10.25-3.63-16.59-8.94-16.59-17.79,0-9.78,8.11-17.05,20.31-17.05,6.43,0,11.09,1.49,13.88,3.07l-2.23,6.62a25,25,0,0,0-11.93-3c-8.57,0-11.83,5.12-11.83,9.41,0,5.87,3.82,8.75,12.48,12.11,10.63,4.1,16,9.22,16,18.45,0,9.68-7.17,18.07-22,18.07-6.05,0-12.67-1.77-16-4Z"/><rect x="1019.77" y="818.69" width="6.32" height="13.06"/><rect x="1019.77" y="889.07" width="6.32" height="13.62"/><rect class="cls-17" x="763.08" y="836.56" width="1.44" height="56.88" transform="translate(-46.24 43.14) rotate(-3.14)"/><polygon class="cls-15" points="639.87 848 678.8 848 678.8 805.51 636.49 803.02 639.87 848"/><rect class="cls-17" x="656.92" y="797.81" width="1.44" height="56.88" transform="translate(-44.28 37.27) rotate(-3.14)"/><rect class="cls-17" x="841.68" y="1058.74" width="54.48" height="41.66" transform="translate(1737.85 2159.13) rotate(-180)"/><polygon class="cls-16" points="869.65 1181.24 679.49 1181.24 677.83 1075.66 622.33 1075.66 622.33 906.63 623.77 906.63 623.77 1074.22 679.25 1074.22 680.91 1179.79 868.2 1179.79 868.2 1100.4 869.65 1100.4 869.65 1181.24"/><circle class="cls-20" cx="868.92" cy="1099.57" r="9.73"/><circle class="cls-20" cx="677.83" cy="1074.94" r="9.73"/><circle class="cls-20" cx="623.05" cy="908.06" r="9.73"/><path class="cls-21" d="M919.44,1030.85a14.66,14.66,0,0,0-10.39-4.42h-.15a14.66,14.66,0,0,0-10.32,4.21l-.52-.5-.5-.52A16.09,16.09,0,0,1,908.9,1025h.17a16.13,16.13,0,0,1,11.41,4.86Z"/><path class="cls-21" d="M923.88,1026.5a21.67,21.67,0,0,0-15-6.55,20.55,20.55,0,0,0-15,5.9l-1-1a22,22,0,0,1,15.54-6.32h.5a23.09,23.09,0,0,1,16,7Z"/><path class="cls-21" d="M928.33,1022.13c-11-11.19-28.64-11.75-39.35-1.23l-1-1c11.28-11.07,29.85-10.5,41.39,1.26Z"/><path class="cls-21" d="M837.48,1030.85a14.68,14.68,0,0,0-10.39-4.42h-.15a14.63,14.63,0,0,0-10.32,4.21l-.53-.5-.49-.52a16.06,16.06,0,0,1,11.34-4.64h.17a16.12,16.12,0,0,1,11.4,4.86Z"/><path class="cls-21" d="M841.91,1026.5a21.65,21.65,0,0,0-15-6.55,20.53,20.53,0,0,0-15,5.9l-1-1a22,22,0,0,1,15.54-6.32h.49a23.1,23.1,0,0,1,16.06,7Z"/><path class="cls-21" d="M846.37,1022.13a28.94,28.94,0,0,0-19.79-8.77A26.47,26.47,0,0,0,807,1020.9l-1-1a27.89,27.89,0,0,1,20.62-7.94,30.37,30.37,0,0,1,20.78,9.2Z"/><path class="cls-21" d="M688.61,1057.89a14.74,14.74,0,0,0-20.86-.21l-1-1a16.19,16.19,0,0,1,22.94.19Z"/><path class="cls-21" d="M693.05,1053.54c-8.31-8.47-21.79-8.76-30-.66l-1-1c8.82-8.66,23.22-8.36,32.09.67Z"/><path class="cls-21" d="M697.5,1049.16c-11-11.19-28.64-11.75-39.35-1.23l-1-1c11.28-11.07,29.85-10.51,41.39,1.25Z"/><path class="cls-13" d="M1016.62,1118.76l-1.45,0c1.06-39.06,3-113.47,2.77-115.59l.52,0,.88-.3C1019.7,1003.86,1017.56,1084.24,1016.62,1118.76Z"/><path class="cls-17" d="M496.68,780.85H517a67.4,67.4,0,0,1,67.32-67.33V693.24A87.71,87.71,0,0,0,496.68,780.85Z"/><path class="cls-17" d="M435.53,686.14h20.28a67.4,67.4,0,0,1,67.32-67.32V598.54A87.7,87.7,0,0,0,435.53,686.14Z"/><path class="cls-11" d="M515.68,796.86v33.75a3.77,3.77,0,0,1-4.14,3.75l-82.25-8.46a1.73,1.73,0,0,1-.35-3.37l84.65-27.2A1.6,1.6,0,0,1,515.68,796.86Z"/><path class="cls-22" d="M454.08,696.44l-7.57,32.9a3.76,3.76,0,0,1-4.88,2.71l-78.25-26.68a1.73,1.73,0,0,1,.41-3.37l88.59-7.52A1.6,1.6,0,0,1,454.08,696.44Z"/><path class="cls-15" d="M737.9,445.39c-16.32-9.13-23.7-16.47-28.86-24-20.95-30.56-8.79-69.35-5.83-78.8,4.15-13.26,10.79-34.44,31.78-48,3-1.94,25-16.12,46.69-11,3.56.83,4.29,1.16,15.24,3.57,15.48,3.4,26.22,5,29.74,5.63,16.24,2.85,35.44,12.26,48.09,23.55C906.52,344.68,904,391.15,903.29,400c-1,14-3.22,42.95-24.32,61.29C834.86,499.63,752,453.28,737.9,445.39Z"/><path class="cls-12" d="M592.78,730.44,474.58,544.62,666.4,554.68h74.42l146.74,37.13c4.9,10.93,12.4,31.88,9.73,57.88,0,0-3.42,33.4-29.67,65.19C831.39,758.74,722,767.25,592.78,730.44Z"/><path class="cls-16" d="M815.08,658.92c-35.1,0-62.84-13.62-77-22.36l.76-1.23c15.59,9.61,47.78,25.2,88.09,21.62a138.16,138.16,0,0,0,47.74-13.22l.63,1.3A139.64,139.64,0,0,1,827,658.39Q820.94,658.93,815.08,658.92Z"/><path class="cls-20" d="M944.48,548.19a139.21,139.21,0,0,0-13-37.94c-35.85-69.54-119.89-83.66-128.42-85-51.49-7.86-111.84,6.13-143.66,33.4-4,3.41-10.75,9.79-22.06,13.62-26,8.8-53.84-3.5-73.93-15.89l-31.14,56.1c44.42,33.37,88.5,48.06,132,30.16l268.19,73.61C944.77,596.72,948.47,573.91,944.48,548.19Z"/><ellipse class="cls-21" cx="781.39" cy="549.77" rx="106.69" ry="59.63"/><ellipse class="cls-16" cx="863.54" cy="570.19" rx="50.46" ry="67.6" transform="translate(264.39 1413.89) rotate(-88.06)"/><path class="cls-17" d="M544.79,452s-2.55,8.06-14,17.73C507.89,489,468,485.84,421.56,476.52c-3.29-.66-8.86-2-9.73-5.35-.49-1.93-.33-3.13,1.15-4.45,4-3.59,12-.84,21.59,1.13,5.06,1,15.93-.07,25.43-.45a2,2,0,0,0,1.87-1.45l.28-.91a2,2,0,0,0-1.83-2.64c-18.1-1.25-37.22-5.29-51.32-15.45a5,5,0,0,1-1.37-6.76h0a5,5,0,0,1,6.63-1.8c16.17,8.43,34.5,13.84,48.94,13a2.06,2.06,0,0,0,2-2l0-.69a2,2,0,0,0-1.48-2.06c-20.29-5.75-43.84-12.18-52.56-26.41a4.26,4.26,0,0,1,1.12-5.61h0a4.28,4.28,0,0,1,5.28.1c12.7,10.42,27.45,18.29,48.54,23.4a2.07,2.07,0,0,0,2.47-1.51v-.05a2.07,2.07,0,0,0-1-2.39C461.24,431,437.68,418.3,428.5,407a5.44,5.44,0,0,1,1.31-8h0a5.43,5.43,0,0,1,6.27.26c29.21,22.7,59.34,37.73,92.25,29.91,13.7-3.51,16.95-12.84,16-24.53a7.55,7.55,0,0,1,7.2-8.13h0a7.61,7.61,0,0,1,7.94,7.34C560,416.91,547.28,446.71,544.79,452Z"/><path class="cls-17" d="M737.55,623.73s-8.34,1.41-22.18-4.38c-27.58-11.54-43-48.46-55.91-94.05-.92-3.23-2.31-8.78.32-11.1,1.49-1.32,2.63-1.72,4.48-1,5,1.94,6.24,10.3,8.86,19.72,1.39,5,7.34,14.14,12,22.41a2.06,2.06,0,0,0,2.15,1l.93-.17a2.05,2.05,0,0,0,1.51-2.84c-7.15-16.67-12.3-35.53-9.71-52.7a5.05,5.05,0,0,1,5.39-4.31h0a5,5,0,0,1,4.63,5.07c-.11,18.24,3.46,37,10.77,49.49a2.06,2.06,0,0,0,2.65.85l.63-.29a2.06,2.06,0,0,0,1.15-2.26c-4.16-20.68-9.2-44.56-.53-58.82a4.26,4.26,0,0,1,5.5-1.57h0a4.27,4.27,0,0,1,2.33,4.74c-3.46,16.06-3.73,32.78,1.36,53.87a2.08,2.08,0,0,0,2.48,1.51h0a2.06,2.06,0,0,0,1.65-2c0-7.1.53-33.84,6.39-47.17a5.43,5.43,0,0,1,7.71-2.49h0a5.43,5.43,0,0,1,2.63,5.69c-6.84,36.36-6.44,70,15.55,95.73,9.38,10.58,19.17,9.21,29.12,3a7.55,7.55,0,0,1,10.52,2.7h0a7.6,7.6,0,0,1-2.9,10.41C775.73,621.17,743.42,623.5,737.55,623.73Z"/><polygon class="cls-16" points="474.35 419.06 533.45 419.06 533.45 293.56 469.57 291.37 474.35 419.06"/><circle class="cls-20" cx="520.55" cy="306.39" r="6.57"/><circle class="cls-14" cx="520.55" cy="334.73" r="5.47"/><circle class="cls-14" cx="502.79" cy="334.73" r="5.47"/><circle class="cls-14" cx="486.26" cy="334.73" r="5.47"/><circle class="cls-14" cx="520.55" cy="365.62" r="5.47"/><circle class="cls-14" cx="502.79" cy="365.62" r="5.47"/><circle class="cls-14" cx="486.26" cy="365.62" r="5.47"/><circle class="cls-14" cx="520.55" cy="396.5" r="5.47"/><circle class="cls-14" cx="502.79" cy="396.5" r="5.47"/><circle class="cls-14" cx="486.26" cy="396.5" r="5.47"/><ellipse class="cls-21" cx="882.65" cy="584.02" rx="48.16" ry="74.16" transform="translate(152.15 1349.87) rotate(-79.84)"/><polygon class="cls-16" points="962.56 529.04 955.91 566.16 927.09 541.84 962.56 529.04"/><polygon class="cls-14" points="822.15 512.71 861.89 540.12 818.28 560.83 822.15 512.71"/><polygon class="cls-14" points="900.21 607.86 879.46 603.48 887.56 615.32 900.21 607.86"/><path class="cls-16" d="M859,592.06a8.88,8.88,0,0,1-1.62-.15c-5-.93-9.17-5.87-9.44-11.26l1.45-.08c.23,4.67,3.93,9.12,8.25,9.92a7.46,7.46,0,0,0,7.63-3.32l1.22.78A8.91,8.91,0,0,1,859,592.06Z"/><path class="cls-16" d="M922,601.44a8.88,8.88,0,0,1-1.62-.15c-5-.93-9.16-5.87-9.44-11.26l1.45-.07c.23,4.67,3.94,9.11,8.25,9.91a7.44,7.44,0,0,0,7.63-3.32l1.22.78A8.91,8.91,0,0,1,922,601.44Z"/><polygon class="cls-16" points="917.14 639.9 898.4 614.06 944.51 627.11 944.12 628.5 902.02 616.58 918.31 639.05 917.14 639.9"/><path class="cls-16" d="M922.41,515.18a30.85,30.85,0,0,0-39.95-17.41l-1.38-3.34.08,0a34.47,34.47,0,0,1,44.62,19.46Z"/><path class="cls-16" d="M934.6,510.38a45.33,45.33,0,0,0-23.67-24.95,43.11,43.11,0,0,0-33.73-.87l-1.33-3.37a46.75,46.75,0,0,1,36.54.94A48.94,48.94,0,0,1,938,509.06Z"/><path class="cls-16" d="M946.84,505.56a60.66,60.66,0,0,0-31.05-33.14A55.5,55.5,0,0,0,871.85,471l-1.32-3.36a59.09,59.09,0,0,1,46.78,1.54,64.28,64.28,0,0,1,32.89,35.11Z"/><circle class="cls-21" cx="892.42" cy="524.98" r="7.17"/><path class="cls-5" d="M747,328.49c-9,26.63-16.06,53.22,14.3,78.93a202.26,202.26,0,0,1,30.33,32.38l2.14,2.83a12.73,12.73,0,0,0,19.74.78c12.06-14,15.24-51.43,16.35-94.33Z"/><path class="cls-12" d="M765.17,360.06c-.35,3.89-1.09,11.39-1.56,16a2.87,2.87,0,0,1-4,2.35l-12-5.21a1.83,1.83,0,0,1-.31-3.18l16-11.05A1.21,1.21,0,0,1,765.17,360.06Z"/><path class="cls-16" d="M788.75,363.83l-1.42-.27c1.12-5.87.3-9.89-2.44-12a4.64,4.64,0,0,0-3.4-1c-3.9.54-4.74,6.54-5,12.34l-1.44-.07c.35-6.72,1.36-13,6.3-13.71a6.13,6.13,0,0,1,4.46,1.28C789,352.87,790,357.38,788.75,363.83Z"/><path class="cls-16" d="M761.66,351.72l-1.44-.15c.5-4.84-.48-8.28-2.92-10.23a4.47,4.47,0,0,0-2.87-1.08c-2.4.13-3.33,3.06-3.09,9.8l-1.45.05c-.19-5.46.19-11.07,4.46-11.29a5.85,5.85,0,0,1,3.85,1.39C761.05,342.49,762.21,346.36,761.66,351.72Z"/><ellipse class="cls-23" cx="833.45" cy="377.51" rx="13.17" ry="9" transform="translate(-81.28 398) rotate(-25.65)"/></g></svg>