<svg id="homeowners" xmlns="http://www.w3.org/2000/svg" xmlns:xlink="http://www.w3.org/1999/xlink" viewBox="0 0 1016.2 946.94"><defs><style>.cls-1{fill:#fff;}.cls-1,.cls-14,.cls-16,.cls-18,.cls-21,.cls-22,.cls-24{fill-rule:evenodd;}.cls-2,.cls-22{fill:#333;}.cls-14,.cls-3{fill:#fccc39;}.cls-18,.cls-4{fill:#e33a60;}.cls-5{fill:#238da3;}.cls-6{fill:#f79c4f;}.cls-7{fill:#fe3a57;}.cls-16,.cls-8{fill:#eb6d52;}.cls-21,.cls-9{fill:#27a6de;}.cls-10{fill:#1980b9;}.cls-11{fill:#00a451;}.cls-12,.cls-24{fill:#73c49d;}.cls-13{mask:url(#mask);}.cls-15{mask:url(#mask-2-2);}.cls-17{mask:url(#mask-3);}.cls-19{mask:url(#mask-4);}.cls-20{mask:url(#mask-5);}.cls-23{mask:url(#mask-6);}</style><mask id="mask" x="-155.44" y="-98.02" width="778.28" height="899.55" maskUnits="userSpaceOnUse"><g id="mask-2"><polygon id="path-1" class="cls-1" points="-155.44 801.53 622.85 801.53 622.85 -98.02 -155.44 -98.02 -155.44 801.53"/></g></mask><mask id="mask-2-2" x="425.61" y="-683.82" width="1456.59" height="1283.4" maskUnits="userSpaceOnUse"><g id="mask-2-3" data-name="mask-2"><polygon id="path-1-2" data-name="path-1" class="cls-1" points="1882.2 507.44 1802.49 -683.82 425.61 -591.68 505.32 599.58 1882.2 507.44"/></g></mask><mask id="mask-3" x="-121.05" y="-265.95" width="1560.96" height="1667.46" maskUnits="userSpaceOnUse"><g id="mask-2-4" data-name="mask-2"><polygon id="path-1-3" data-name="path-1" class="cls-1" points="349.36 1401.51 1439.9 994.52 969.5 -265.95 -121.05 141.04 349.36 1401.51"/></g></mask><mask id="mask-4" x="-121.56" y="506.74" width="935.71" height="1020.61" maskUnits="userSpaceOnUse"><g id="mask-2-5" data-name="mask-2"><polygon id="path-1-4" data-name="path-1" class="cls-1" points="87.95 1527.35 814.14 1346.09 604.63 506.74 -121.56 688.01 87.95 1527.35"/></g></mask><mask id="mask-5" x="-128.65" y="504.05" width="935.71" height="1020.61" maskUnits="userSpaceOnUse"><g id="mask-2-6" data-name="mask-2"><polygon id="path-1-5" data-name="path-1" class="cls-1" points="80.86 1524.67 807.05 1343.4 597.54 504.06 -128.66 685.32 80.86 1524.67"/></g></mask><mask id="mask-6" x="-651.62" y="3.05" width="1309.26" height="1336.74" maskUnits="userSpaceOnUse"><g id="mask-2-7" data-name="mask-2"><polygon id="path-1-6" data-name="path-1" class="cls-1" points="-651.62 814.3 50.27 1339.79 657.64 528.54 -44.25 3.05 -651.62 814.3"/></g></mask></defs><title>homeowners</title><path class="cls-2" d="M708.53,452.93l-1.62-1.17c15.42-21.14,22.2-46.06,18.6-68.39-2.35-14.55-8.87-26.3-18.37-33.09-8.19-5.86-19.71-8.58-32-8,4.79,10.64,7.35,22.37,5,34.31-3.34,17.11-15.76,35.11-29.08,35.11h-.51c-6.25-.22-12.87-4.53-18.15-11.83-7.07-9.78-9.92-22-7.27-31.09,2.93-10,13.61-19.15,28.57-24.33a77.59,77.59,0,0,1,18.39-3.95c-10.16-20.59-28.45-36.64-33.57-40.89-27.71-23-53.35-25.63-76-28-21.24-2.22-39.58-4.13-55-21.58-17.79-20.18-16.43-44.84-15.24-66.6,1.18-21.43,2.3-41.68-14.65-54.45-20.53-15.46-60.33-15.68-118.31-.66-8.63,2.24-18.11,5.07-18.2,5.09a366.59,366.59,0,0,0-34.74,12.09c-5.93,2.37-9.85,3.93-14.73,4.89a48.92,48.92,0,0,1-8.32.9c10.69,33.91,20.67,78.93-6,118.42-20.7,30.67-52.31,41.41-65.8,46-20.52,7-46.18,10.65-67,9.62-17.83-.89-40.66-5.5-48.18-22.41-8.93-20.07,5.52-52.25,28.64-63.76,13.38-6.66,30.28-6.86,46.38-.55,20.07,7.88,36.26,24.8,44.41,46.41l-1.88.7c-7.94-21.08-23.72-37.57-43.27-45.24-15.56-6.12-31.87-5.94-44.75.47C103.73,252,89.75,282.9,98.3,302.11c12.43,27.95,74.51,24.66,112.66,11.71,14.44-4.9,44.47-15.1,64.79-45.22,26.43-39.17,16.58-82.6,5.54-117.28-20.94-.26-43.54-12.09-56.22-25-6.57-6.73-9.64-12.93-8.64-17.48.63-2.83,2.91-5.44,6.6-7.54,7.78-4.43,19.36-5.49,28.17-2.58,7.68,2.53,17.76,9.21,27.58,38.6,1.27,3.81,2.62,7.84,4,12a47.69,47.69,0,0,0,8.56-.88c4.7-.93,8.55-2.46,14.38-4.79,7.23-2.88,17.12-6.83,34.91-12.14.09,0,9.6-2.87,18.22-5.1,10.45-2.71,32.1-8.32,55.56-10.42,29.27-2.62,51,1.22,64.5,11.4,17.8,13.41,16.66,34.18,15.45,56.16-1.23,22.42-2.51,45.6,14.74,65.17,14.86,16.86,32.84,18.74,53.67,20.91,22.9,2.39,48.86,5.1,77,28.44,5.26,4.36,24.14,20.94,34.43,42.27,13.08-.77,25.37,2.08,34.1,8.31,9.94,7.1,16.75,19.32,19.19,34.4C731.17,405.9,724.26,431.37,708.53,452.93ZM673,342.42a75,75,0,0,0-18.65,3.92c-14.35,5-24.56,13.57-27.31,23-2.45,8.4.35,20.2,7,29.35,4.92,6.8,11,10.82,16.6,11,12.28.47,24.4-17.3,27.56-33.48C680.46,364.48,677.83,352.91,673,342.42ZM240.58,99.05A35.17,35.17,0,0,0,224,103c-3.14,1.79-5.14,4-5.63,6.23-.84,3.81,2.11,9.51,8.11,15.65,12.25,12.52,34,24,54.15,24.44-1.27-3.93-2.54-7.74-3.77-11.41-9.54-28.55-19.07-34.95-26.31-37.33A31.91,31.91,0,0,0,240.58,99.05Z"/><path class="cls-3" d="M314,618.07c.45,3.57,146.71,207.17,146.71,207.17,167.89-124,319-249.58,403.25-381C706.28,459.75,532,502.8,314,618.06Z"/><path class="cls-4" d="M353.16,477,100,534.12a1.06,1.06,0,0,0,.09,2.09l149.55,19.57a1.05,1.05,0,0,1,.87,1.39L233.72,607a1.06,1.06,0,0,0,1.45,1.3l155.58-70.25Z"/><path class="cls-5" d="M419.35,352.57c-2.87,4.17-7.17,3.36-14.53,6-12.39,4.48-19.81,13.87-21.16,15.58-7.25,9.16-4.89,14.12-12,19.14-1,.71-10.07,6.93-17.62,2.77-6.73-3.7-7-12.76-7-13.93-.06-4.26,1.41-11.14,6-13.26,3-1.41,6.28-.15,6.86-1.56s-2.08-2.57-3-5.32c-1.2-3.62,1-8.31,3.57-10.74,4.06-3.83,8.36-1.34,25.67-2.23,11.8-.61,14.39-2,16.15-3.44,3.35-2.72,4-5.79,8-7.07,2.63-.85,6.6-.88,9,1.5C422.45,343.14,421.74,349.09,419.35,352.57Z"/><path class="cls-6" d="M426.24,360.09c9,12.22,18.84,32.9,21.73,45.54a12.89,12.89,0,0,1-3,11.43,108.92,108.92,0,0,1-14.67,13.43l-.19.15a46.32,46.32,0,0,0-16.62,27.09l-3.93,18.69-41.6-6.72-9.15-65.21a38.76,38.76,0,0,1,7.33-28.86c8.36-11,20.74-19,38-23.34A21,21,0,0,1,426.24,360.09Z"/><path class="cls-2" d="M406.36,388.89c-2.85,0-6.31-1.38-9.78-3l.85-1.81c6.8,3.23,10.4,3.65,12,1.44a4.07,4.07,0,0,0,.63-3c-.46-3-3.34-5.42-8.55-7.07l.61-1.91c6,1.9,9.33,4.82,9.92,8.68a6.06,6.06,0,0,1-1,4.49A5.47,5.47,0,0,1,406.36,388.89Z"/><path class="cls-2" d="M414.43,414.65c-7.11,0-13.74-3.25-19.43-6.79l1.06-1.7c15.24,9.48,26.24,8.63,36.79-2.85l1.47,1.35C427.55,412,420.8,414.65,414.43,414.65Z"/><path class="cls-7" d="M421.54,364.52c2.7,5.06,10.15,17.23,13.67,22.93a2.44,2.44,0,0,0,4,.18l11.44-15.25a1.83,1.83,0,0,0-1-2.88l-26.85-6.58A1.12,1.12,0,0,0,421.54,364.52Z"/><path class="cls-6" d="M168.36,248.67c-4.12,4.8-1.53,13,1.73,22.42,11.55,33.33,17.32,50,27.44,58.88,5.5,4.83,14.2,12.47,27.5,14,20.69,2.44,36-11.69,39.67-15.23,4.37-4.28,15.12-14,15.13-27.87,0-7.3-2.93-17.59-8.85-19.15-2.45-.65-5.89.07-7.26,2.12-.76,1.13-.31,2-.05,7.12.27,5.41-.11,6.38-.44,7-1.4,2.57-4.51,3.35-5.44,3.59a13.35,13.35,0,0,1-13.66-5.18c-5-7.29,1.3-16.76,2.12-18,3.65-5.49,9.65-8.66,10.89-7.59.91.77-1.24,3.33-.14,7.21a6.21,6.21,0,0,0,2.87,4.08,6,6,0,0,0,4.83-.05,7.67,7.67,0,0,0,3.6-3.2c2.39-3.67,1.6-7.84,1.35-9.14a16.1,16.1,0,0,0-2.54-6c-.44-.65-4.8-6.89-10.26-7.33-8.41-.68-13.29,12.87-17.81,11.4-2-.64-2.29-3.66-3.87-14-2.72-17.79-3.93-22.74-7.88-26.82-1.4-1.43-4.34-4.39-8.07-4a8.62,8.62,0,0,0-6.42,4.8c-1.52,3-1,6.46,1.43,12.89,4.31,11.33,9,17.07,11.82,27.78.69,2.63,1.51,6.45-.48,8.43a5.28,5.28,0,0,1-4.53,1.21c-4.22-.81-6.31-7.25-11.46-24.68-4.11-13.9-5.28-18.25-9.19-19.71a9.71,9.71,0,0,0-10.26,2.86c-2.68,3.33-1.73,8.26-.48,12.82,6.27,22.86,20.23,36.58,16.27,42.24a6.45,6.45,0,0,1-4.14,2.64c-2.42.28-4.44-1.42-5.18-2.05-7-5.91-10.13-24.45-11-30.24-1.63-10.28-1.66-14-4.84-15.89C177.11,244,171.24,245.31,168.36,248.67Z"/><path class="cls-6" d="M611,212.54c4.55,4.4,2.75,12.83.39,22.48-8.36,34.28-12.54,51.42-21.77,61.2-5,5.34-13,13.76-26.07,16.57-20.37,4.36-37-8.25-40.92-11.44C517.91,297.51,506.3,288.81,505,275c-.69-7.26,1.26-17.78,7-19.9,2.38-.87,5.87-.48,7.43,1.43.86,1.06.5,2,.72,7.09.24,5.4.71,6.34,1.1,6.92,1.63,2.42,4.8,2.91,5.75,3.06a13.34,13.34,0,0,0,13.11-6.44c4.27-7.73-2.87-16.56-3.81-17.72-4.14-5.12-10.42-7.71-11.56-6.53-.83.85,1.56,3.2.83,7.16a6.23,6.23,0,0,1-2.47,4.33,6,6,0,0,1-4.82.41,7.69,7.69,0,0,1-3.89-2.85c-2.72-3.43-2.33-7.65-2.2-9a16.17,16.17,0,0,1,2-6.17,16.77,16.77,0,0,1,9.52-8.26,16,16,0,0,1,14,2.29c3.93,2.94,4.59,6.83,5.87,6.55,1.49-.31,1.26-5.78,1.45-13.49.47-19.47,2.89-24.4,5.32-27.44,1.26-1.56,3.91-4.79,7.66-4.75a8.69,8.69,0,0,1,6.84,4.17c1.8,2.86,1.62,6.34-.21,13-3.22,11.67-7.35,17.84-9.15,28.77-.44,2.68-.89,6.56,1.27,8.34a5.29,5.29,0,0,0,4.63.78c4.11-1.21,5.59-7.81,9.08-25.65,2.79-14.23,3.54-18.67,7.29-20.49a9.71,9.71,0,0,1,10.48,1.89c3,3.06,2.51,8.05,1.69,12.71-4.09,23.35-16.7,38.33-12.22,43.58a6.44,6.44,0,0,0,4.37,2.24c2.44.06,4.28-1.82,5-2.52,6.43-6.55,7.79-25.3,8.16-31.15.66-10.39.33-14.13,3.33-16.28C601.89,208.7,607.86,209.47,611,212.54Z"/><polygon class="cls-5" points="241.36 179.14 293.24 217.96 329.66 168.49 283.62 123.48 241.36 179.14"/><polygon class="cls-8" points="337.15 108.97 372.2 187.65 437.99 174.94 455.34 98.32 337.15 108.97"/><path class="cls-9" d="M541.37,169.58l-68,38.09a39.17,39.17,0,1,1,68-38.09Z"/><ellipse class="cls-8" cx="360.49" cy="407.79" rx="9.64" ry="6.79" transform="translate(-30.14 28.78) rotate(-4.39)"/><path class="cls-9" d="M775.45,594l-61.33,90.71c-12.33-11.83-38.66-33.65-78.34-42.78-6.74-1.55-38-8.29-76.78.52-32.1,7.28-33,17-61.33,24.22-13.23,3.39-61.89,15.86-103.07-11.34-39.65-26.19-47.26-72.58-49.48-86.07a143,143,0,0,1-1.21-36.74A201.16,201.16,0,0,0,398.48,540a207.49,207.49,0,0,0,26.14-1.67,201.66,201.66,0,0,0,124.32-64.55l189.92-58.64,28.86,93.28-68.17,25.79C726,547.73,751.28,567.46,775.45,594Z"/><path class="cls-10" d="M775.45,594l-61.33,90.71c-12.33-11.83-38.66-33.65-78.34-42.78-6.74-1.55-38-8.29-76.78.52-32.1,7.28-33,17-61.33,24.22-13.23,3.39-61.89,15.86-103.07-11.34-39.65-26.19-47.26-72.58-49.48-86.07a143,143,0,0,1-1.21-36.74A201.16,201.16,0,0,0,398.48,540a207.49,207.49,0,0,0,26.14-1.67,201.66,201.66,0,0,0,124.32-64.55l189.92-58.64,28.86,93.28-68.17,25.79C726,547.73,751.28,567.46,775.45,594Z"/><path class="cls-2" d="M524.81,547.32l-2.24-4.47c32.65-16.31,63.8-25.66,92.59-27.79,30.34-2.24,59.09,3.44,85.44,16.9l-2.27,4.45C647.85,510.64,591.09,514.21,524.81,547.32Z"/><path class="cls-11" d="M344.4,532.58l-1-.09a151.38,151.38,0,0,1,4.32-24.16l1,.26A150.4,150.4,0,0,0,344.4,532.58Z"/><path class="cls-2" d="M734.13,678.21c5.82,5.57,16.45,13.72,22,17.88a5.15,5.15,0,0,0,6.72-.47l74.77-74.4a5,5,0,0,0-2.71-8.53l-4-.69a51.4,51.4,0,0,0-41.6,11.29l-54.82,45.92A6,6,0,0,0,734.13,678.21Z"/><path class="cls-2" d="M773.7,483.72c5-.06,11.36-.36,16.11-.62a7.49,7.49,0,0,0,7.08-7.17l4.37-103.45a5.84,5.84,0,0,0-6.78-6c-6.25,1-11.7,4.3-16.39,9.83a39.87,39.87,0,0,0-9.21,24.37L766.14,476A7.48,7.48,0,0,0,773.7,483.72Z"/><path class="cls-12" d="M566.46,468.84q-5.28,6.77-11,13a209.71,209.71,0,0,1-128.94,66.39,217.07,217.07,0,0,1-27.1,1.71,210.08,210.08,0,0,1-128.47-43.7,207.1,207.1,0,0,1-79.78-136.71,2.31,2.31,0,0,1,1.73-2.56L296.72,341.1a2.31,2.31,0,0,1,2.84,2.61c-7.88,50.89,39.82,120.92,100.19,120.92a125.34,125.34,0,0,0,98.68-48c19.78-25.36,22.7-51.77,19-83.27a3,3,0,0,1,2.44-3.3l85.86-15a3,3,0,0,1,3.46,2.58A206.16,206.16,0,0,1,566.46,468.84Z"/><path class="cls-2" d="M179.43,901.47a15.28,15.28,0,0,1-5.93-1.24c-4.83-2-9.56-6.32-14.9-13.52-18.66-25.15-29.35-62.89-28.6-100.94l2,0c-.74,37.63,9.8,74.91,28.21,99.72,5.11,6.9,9.58,11,14.06,12.87a12.21,12.21,0,0,0,14.95-3.89,24.66,24.66,0,0,0,3.64-6.75,43.16,43.16,0,0,1-20.11-19.92c-6.31-12.69-7.75-29.5-5.14-37.24a19.74,19.74,0,0,1,4.24-7.41,9.86,9.86,0,0,1,5.55-2.79,18.27,18.27,0,0,1,17.85,7.92c6.93,9.9,5.69,26.45,3.56,41.34a104.32,104.32,0,0,1-3.47,17.05,53.87,53.87,0,0,0,7.12,2.58c10,2.88,18.39,2.86,25.71-.06,9-3.59,16.43-11.91,20.3-22.82,4.32-12.21,4.67-23.64,4.44-33.22,0-2.18-.16-4.35-.32-6.49-5.55-7.9-10.32-19-10.8-21.23-.86-4,.14-9.09,1.57-11.17A2.52,2.52,0,0,1,245,793.1a2,2,0,0,1,1.62.53c3.19,2.68,6.73,17.74,7.92,32.35a27.55,27.55,0,0,0,4.84,5.43c16.49,13.27,36-7.9,36.82-8.81,9.71-10.72,17.52-27.83,22.58-49.51l1.94.46c-5.13,22-13.1,39.43-23,50.39-8,8.78-25.24,20.56-39.56,9a23.52,23.52,0,0,1-3.35-3.4c.07,1.2.11,2.39.14,3.56.24,9.76-.12,21.43-4.56,33.94-4.06,11.45-11.87,20.2-21.44,24-7.75,3.09-16.59,3.13-27,.13a56.9,56.9,0,0,1-7.22-2.62,26.53,26.53,0,0,1-3.9,7.16A14.37,14.37,0,0,1,179.43,901.47Zm.57-79.29a12.65,12.65,0,0,0-2.25.18,8,8,0,0,0-4.51,2.25,18.41,18.41,0,0,0-3.74,6.62c-2.48,7.36-1.05,23.46,5,35.71a41.24,41.24,0,0,0,19,18.9,104.42,104.42,0,0,0,3.31-16.47c2.08-14.51,3.31-30.59-3.22-39.91A16.26,16.26,0,0,0,180,822.18Zm65.25-27.08c-.88.57-2.42,5.72-1.51,9.93.4,1.84,4,10.3,8.47,17.46C250.67,807.93,247.1,796,245.25,795.1Z"/><polygon class="cls-8" points="338.02 705.99 388.26 779.38 327.32 822.01 338.02 773.43 267.7 800.94 302.42 749.94 269.46 752.14 338.02 705.99"/><g class="cls-13"><g id="Fill-111"><path class="cls-14" d="M532.62,41.59A14.69,14.69,0,0,0,517.9,56.25c0,.33,0,.66,0,1,.06,2.9-.2,11.5-4.88,15.62-5.68,5-15.91,5.09-15.91,5.09a14.65,14.65,0,1,0,14.72,14.65q0-.47,0-.9c0-2.62.46-10.33,4.36-15.16,4.75-5.88,16.42-5.6,16.42-5.6l0,0h0a14.66,14.66,0,1,0,0-29.32"/></g></g><g class="cls-15"><g id="Fill-118"><path class="cls-16" d="M697.59,179.11a22.6,22.6,0,0,0,12.13,18.56c1.41,1.42,4,3.81,4.28,7.84s-2,6.74-3.18,8.31a22.55,22.55,0,1,0,31.44,31.27v.12s.07-.17.21-.43.29-.48.44-.72a11.41,11.41,0,0,1,8.86-5.53,11.23,11.23,0,0,1,9.54,4.34l.38.49a3.41,3.41,0,0,1,.29.43v-.12A22.59,22.59,0,1,0,760.14,216s-4,6.1-9.43,6.46-10.19-4.14-13.61-7.43-6.85-6.25-7.14-10.63,2.19-7.16,3.48-8.71c5.89-5.14,9.56-11.68,9-19.63a22.49,22.49,0,1,0-44.88,3"/></g></g><g class="cls-17"><g id="Fill-138"><path class="cls-18" d="M780.63,114.94a22,22,0,1,1,28.29,12.84,22,22,0,0,1-28.29-12.84"/></g></g><g class="cls-19"><g id="Fill-138-2" data-name="Fill-138"><path class="cls-18" d="M456.44,736.47a14.16,14.16,0,1,1,17.15,10.24,14.13,14.13,0,0,1-17.15-10.24"/></g></g><g class="cls-20"><g id="Fill-148"><path class="cls-21" d="M451,682.55a14.14,14.14,0,0,0-10.33,17.11c.08.31.17.61.26.91.73,2.69,2.49,10.77-.91,15.71-4.13,6-13.66,8.45-13.66,8.45A14.09,14.09,0,1,0,443.52,735c-.07-.29-.15-.56-.24-.83-.58-2.45-2-9.75.54-15.16,3.06-6.6,14-9.05,14-9.05l0,0h0A14.1,14.1,0,1,0,451,682.55"/></g></g><path class="cls-9" d="M910.65,461.52l-4.88-1.08a52.38,52.38,0,0,0-40.56-62l1-4.89a57.35,57.35,0,0,1,44.44,67.86Z"/><path class="cls-9" d="M934.06,466.41l-4.89-1c8.4-40.17-18.26-79.87-59.45-88.49l1-4.89C914.63,381.18,943,423.54,934.06,466.41Z"/><path class="cls-9" d="M958.12,471.42l-4.89-1c10.9-52.1-24.53-103.76-79-115.16l1-4.89C932.43,362.31,969.59,416.62,958.12,471.42Z"/><polygon class="cls-2" points="479.46 799.52 446.14 786.5 447.6 782.78 474.75 793.39 471.93 768.05 494.64 778.17 494.55 747.3 498.55 747.28 498.65 784.34 476.67 774.54 479.46 799.52"/><polygon class="cls-2" points="533.03 759.36 499.71 746.34 501.17 742.61 528.32 753.22 525.5 727.89 548.21 738 548.12 707.13 552.12 707.12 552.23 744.17 530.25 734.38 533.03 759.36"/><polygon class="cls-2" points="586.6 719.15 553.29 706.13 554.74 702.41 581.89 713.02 579.07 687.68 601.78 697.8 601.69 666.93 605.69 666.91 605.8 703.97 583.82 694.17 586.6 719.15"/><polygon class="cls-2" points="629.59 129.85 612.41 137.85 604.4 120.67 597.39 123.94 605.39 141.12 588.22 149.12 591.48 156.13 608.66 148.13 616.66 165.31 623.67 162.04 615.67 144.86 632.85 136.86 629.59 129.85"/><path class="cls-2" d="M166.54,217.67a8.74,8.74,0,1,1,8.74-8.74A8.75,8.75,0,0,1,166.54,217.67Zm0-15.47a6.74,6.74,0,1,0,6.74,6.73A6.74,6.74,0,0,0,166.54,202.2Z"/><path class="cls-2" d="M166.54,186a8.74,8.74,0,1,1,8.74-8.74A8.75,8.75,0,0,1,166.54,186Zm0-15.47a6.74,6.74,0,1,0,6.74,6.73A6.74,6.74,0,0,0,166.54,170.53Z"/><path class="cls-2" d="M193.52,206.78a8.74,8.74,0,1,1,8.74-8.74A8.75,8.75,0,0,1,193.52,206.78Zm0-15.47a6.74,6.74,0,1,0,6.74,6.73A6.75,6.75,0,0,0,193.52,191.31Z"/><path class="cls-2" d="M193.52,175.11a8.74,8.74,0,1,1,8.74-8.74A8.75,8.75,0,0,1,193.52,175.11Zm0-15.47a6.74,6.74,0,1,0,6.74,6.73A6.75,6.75,0,0,0,193.52,159.64Z"/><polygon class="cls-2" points="422.13 139.88 390.75 111.72 390.75 168.05 422.13 139.88"/><polygon class="cls-2" points="462.89 139.88 431.51 111.72 431.51 168.05 462.89 139.88"/><path class="cls-22" d="M279.49,150.23A31.89,31.89,0,0,0,312.84,203a11.3,11.3,0,1,0-13.75-13.06,11.61,11.61,0,0,0-.12,3.47,20.54,20.54,0,0,1-16-28.56,11.31,11.31,0,1,0-3.49-14.59Z"/><rect class="cls-2" x="513.97" y="140.22" width="7.24" height="42.65" transform="translate(150.12 -237.15) rotate(30)"/><g class="cls-23"><g id="Fill-96"><path class="cls-24" d="M150.29,469.15A16.59,16.59,0,1,1,146.9,446a16.56,16.56,0,0,1,3.39,23.15"/></g></g><g class="cls-23"><g id="Fill-127"><path class="cls-21" d="M172.74,439.16A16.58,16.58,0,1,1,169.36,416a16.55,16.55,0,0,1,3.38,23.16"/></g></g><path class="cls-2" d="M391.26,482.86a27.76,27.76,0,0,1-27.73-27.73h2a25.74,25.74,0,0,0,51.47,0h2A27.76,27.76,0,0,1,391.26,482.86Z"/></svg>