<svg xmlns="http://www.w3.org/2000/svg" xmlns:xlink="http://www.w3.org/1999/xlink" viewBox="0 0 1430.11 1121.54"><defs><style>.cls-1,.cls-11{fill:#fff;}.cls-1,.cls-17,.cls-21,.cls-3,.cls-5,.cls-9{fill-rule:evenodd;}.cls-2{mask:url(#mask);}.cls-18,.cls-3{fill:#27a6de;}.cls-4{mask:url(#mask-2-2);}.cls-5{fill:#fab243;}.cls-17,.cls-6{fill:#73c49d;}.cls-21,.cls-7{fill:#333;}.cls-8{mask:url(#mask-3);}.cls-20,.cls-9{fill:#fccc39;}.cls-10{mask:url(#mask-4);}.cls-12{fill:#eb6d52;}.cls-13{fill:#238da3;}.cls-14{mask:url(#mask-5);}.cls-15{mask:url(#mask-7);}.cls-16{mask:url(#mask-8);}.cls-19{fill:#f79c4f;}.cls-22{fill:#231f20;}.cls-23{fill:#e33a60;}.cls-24{fill:#6fc0eb;}.cls-25{fill:#1980b9;}</style><mask id="mask" x="-118.54" y="-650.01" width="1726.85" height="1995.92" maskUnits="userSpaceOnUse"><g id="mask-2"><polygon id="path-1" class="cls-1" points="-118.55 1345.91 1608.31 1345.91 1608.31 -650.01 -118.55 -650.01 -118.55 1345.91"/></g></mask><mask id="mask-2-2" x="-234.55" y="-220.98" width="1637.36" height="1892.48" maskUnits="userSpaceOnUse"><g id="mask-2-3" data-name="mask-2"><polygon id="path-1-2" data-name="path-1" class="cls-1" points="-234.55 1671.5 1402.81 1671.5 1402.81 -220.98 -234.55 -220.98 -234.55 1671.5"/></g></mask><mask id="mask-3" x="-547.92" y="-211.87" width="2913.45" height="3367.4" maskUnits="userSpaceOnUse"><g id="mask-2-4" data-name="mask-2"><polygon id="path-1-3" data-name="path-1" class="cls-1" points="-547.92 3155.53 2365.53 3155.53 2365.53 -211.87 -547.92 -211.87 -547.92 3155.53"/></g></mask><mask id="mask-4" x="-1636.03" y="-773.26" width="4320.78" height="4617.63" maskUnits="userSpaceOnUse"><g id="mask-2-5" data-name="mask-2"><polygon id="path-1-4" data-name="path-1" class="cls-1" points="-1636.03 2723.88 1389.66 3844.37 2684.74 347.24 -340.94 -773.26 -1636.03 2723.88"/></g></mask><mask id="mask-5" x="-593.35" y="-286.68" width="2559.29" height="2545.45" maskUnits="userSpaceOnUse"><g id="mask-2-6" data-name="mask-2"><polygon id="path-1-5" data-name="path-1" class="cls-1" points="-593.35 1030.41 546.19 2258.77 1965.94 941.68 826.4 -286.68 -593.35 1030.41"/></g></mask><mask id="mask-7" x="-907.15" y="-410.06" width="3905.56" height="4052.44" maskUnits="userSpaceOnUse"><g id="mask-2-8" data-name="mask-2"><polygon id="path-1-7" data-name="path-1" class="cls-1" points="-907.14 2268.03 1409.92 3642.38 2998.41 964.29 681.35 -410.06 -907.14 2268.03"/></g></mask><mask id="mask-8" x="-966.64" y="377.88" width="2110.52" height="1838.9" maskUnits="userSpaceOnUse"><g id="mask-2-9" data-name="mask-2"><polygon id="path-1-8" data-name="path-1" class="cls-1" points="-922.27 377.88 -966.64 2165.49 1099.51 2216.77 1143.88 429.15 -922.27 377.88"/></g></mask></defs><title>llustration_lighttree_technology</title><g id="illustration_lighttree_technology"><g class="cls-2"><g id="Fill-62"><path class="cls-3" d="M152.58,60.08A32.6,32.6,0,0,0,119.91,92.6c0,.73,0,1.46.09,2.18.13,6.43-.46,25.5-10.84,34.65-12.59,11.09-35.29,11.28-35.29,11.28a32.51,32.51,0,1,0,32.67,32.5c0-.66,0-1.32-.07-2,.06-5.81,1-22.92,9.67-33.63,10.54-13.06,36.44-12.43,36.44-12.43l-.07,0h.07a32.52,32.52,0,1,0,0-65"/></g></g><g class="cls-4"><g id="Fill-116"><path class="cls-5" d="M202.79,188.1a31,31,0,1,1-31-30.84,30.9,30.9,0,0,1,31,30.84"/></g></g><path class="cls-6" d="M1020.29,691.81c-28.57,73.45-103.46,102-128.19,111.38a257.49,257.49,0,0,1-111.67,15.74,271.52,271.52,0,0,1-48-8L556.66,775.21a6.85,6.85,0,0,1-4.87-3.67c-1.89-4.08,1.41-8,5.61-8,2.75-.31,5.7-.54,8.82-.59a90,90,0,0,1,23.15,2.62,4.47,4.47,0,0,0,4.71-3.8,4.55,4.55,0,0,0-2.93-4.88c-9.15-2.43-18.93-5.39-29.21-9s-19.52-7.44-28.07-11.27a5.7,5.7,0,0,1-1-10.28,5.86,5.86,0,0,1,4.13-.64,212.66,212.66,0,0,1,61,13.61,5.62,5.62,0,0,0,6.56-3.74,5.69,5.69,0,0,0-3.45-7c-5.72-1.15-11.83-2.65-18.21-4.59a193.61,193.61,0,0,1-34.15-14.09,5.44,5.44,0,0,1-2.94-7.74,5.76,5.76,0,0,1,6.19-2.63A224.82,224.82,0,0,1,613.38,716a4.65,4.65,0,0,0,4.86-1.6c1.47-1.86,1-5-1.25-6.85-5.67-2.79-11.71-6.09-18-10-4.85-3-9.31-6-13.4-9a5.6,5.6,0,0,1-.76-9,6,6,0,0,1,5.7-1q12.27,3.39,25.35,7.87a427.55,427.55,0,0,1,56.81,24.36,20.11,20.11,0,0,0,16.51-.68c9.1-4.67,15.56-13.73,15.17-34.18v-.72a12.2,12.2,0,0,1,9.7-11.93,7.37,7.37,0,0,1,7.45,3A27.63,27.63,0,0,1,726.38,683a15.58,15.58,0,0,0,13.6,15.8c24.19,2.92,47.51,2.41,69.67-2.77,33.58-7.82,64.46-26.34,91.56-59.82-2.54,9-27.48,92.5-99.47,115.35C699.53,784,585.32,667.92,595.1,601.44c10.6-72,154.11-80.23,156.34-141.45,2.84-77.64-227.73-132.63-217-175.32,4.89-19.52,58.58-29.81,96.36-26.77a150.16,150.16,0,0,1,39.76,8.76c33.61,11,82.62,31.43,138.22,63.7,57.43,33.32,143.36,84.74,190.53,188.43C1017.1,558,1046.89,623.45,1020.29,691.81Z"/><path class="cls-7" d="M1064.44,819.3a27.46,27.46,0,0,1-8.92-1.52c-7.4-2.53-14.68-7.92-22.93-17-29-31.79-45.6-79.5-44.44-127.64l2,.05c-1.15,47.63,15.27,94.83,43.91,126.25,8,8.79,15,14,22.11,16.42,9,3.07,17.94,1.18,24-5a30.16,30.16,0,0,0,5.77-8.73c-14-5.53-24.5-14-31.34-25.15-9.8-16-12-37.28-8-47.06a24.54,24.54,0,0,1,6.51-9.26,16.26,16.26,0,0,1,8.3-3.4c1.69-.25,16.85-2.07,27.11,9.83,10.74,12.48,8.81,33.41,5.51,52.23-1.37,7.75-2.86,15.26-5.45,21.68a97.36,97.36,0,0,0,11.46,3.41c15.68,3.68,28.91,3.65,40.47-.09a52.52,52.52,0,0,0,31.83-29.08c6.74-15.46,7.28-29.94,6.92-42.06-.08-2.76-.25-5.51-.5-8.22-8.61-10-16-24-16.8-26.87-1.25-4.74,0-10.55,2-13.42a3.92,3.92,0,0,1,2.59-1.94,3.16,3.16,0,0,1,2.4.89c4.38,3.76,9.94,21.49,11.79,40.5a39.4,39.4,0,0,0,7.64,7c26.13,17.11,56.87-10,58.17-11.2,15.14-13.59,27.3-35.28,35.17-62.73l.26-.87.89.16c18.45,3.43,38.18-8.89,60.31-37.68,14.58-19,32.3-44.78,40-76.35l1.94.47c-7.78,31.94-25.65,58-40.35,77.09-20.14,26.19-38.48,39-55.83,39a34.22,34.22,0,0,1-5.54-.45c-8,27.41-20.26,49.11-35.51,62.81-1,.91-19.64,17.35-40.54,17.35a36,36,0,0,1-20.07-6,37.07,37.07,0,0,1-6.26-5.38q.21,2.86.29,5.73c.37,12.35-.19,27.1-7.08,42.92a54.49,54.49,0,0,1-33.06,30.18c-11.91,3.86-25.49,3.9-41.53.14a101.86,101.86,0,0,1-11.79-3.51,32.36,32.36,0,0,1-6.21,9.41A23.82,23.82,0,0,1,1064.44,819.3Zm.92-100.31a27,27,0,0,0-3.63.22,14.39,14.39,0,0,0-7.35,3,23.11,23.11,0,0,0-5.9,8.47c-3.87,9.32-1.63,29.73,7.85,45.25,6.61,10.82,16.81,19,30.41,24.35,2.53-6.26,4-13.66,5.35-21.32,3.22-18.36,5.14-38.73-5.06-50.57C1080,720.24,1070.54,719,1065.36,719Zm101.46-34.29h0c-.24,0-.68.32-1.18,1.07-1.66,2.45-2.77,7.66-1.67,11.79.65,2.47,7,14.4,14.49,23.79-2.1-17.94-7.3-33.24-10.79-36.23A1.49,1.49,0,0,0,1166.82,684.7Z"/><g class="cls-8"><g id="Fill-144"><path class="cls-9" d="M921.83,243.6A55.12,55.12,0,1,1,977,298.47a55,55,0,0,1-55.12-54.87"/></g></g><g class="cls-10"><g id="Fill-146"><path class="cls-9" d="M993.06,484.52a61.12,61.12,0,0,0,59.19-9.36c5.09-1.92,13.83-5.69,24-1.9s14.45,12.33,17,17a61,61,0,1,0,111.87-43l.28.15s-.33-.36-.83-1-.83-1.26-1.26-1.89c-2.62-4.35-8.83-14.58-3.88-27.95,5.08-13.73,16.63-17.26,21.27-18.71q.79-.18,1.62-.42a10.76,10.76,0,0,1,1.4-.24l-.29-.13a61,61,0,1,0-70.21-26s10.6,16.7,5.52,30.43c-5,13.37-21.45,20.5-33.36,25.29s-23,10-34.13,5.89-15.22-13.29-17.6-18.21c-6.17-20.23-18.25-36.48-38.45-44a60.76,60.76,0,1,0-42.2,114"/></g></g><path class="cls-11" d="M950.43,216.4l.48-10.09a65.42,65.42,0,0,1,62.24,68.52l-10.09-.49a55.32,55.32,0,0,0-52.63-57.94Z"/><path class="cls-11" d="M955.54,241.29l.48-10.08c9.69.46,17.85,4.26,23.6,11,5.51,6.44,8.28,15.26,7.83,24.89l-10.08-.49c.34-7.12-1.54-13.29-5.43-17.83s-9.56-7.13-16.4-7.46Z"/><circle class="cls-11" cx="959.02" cy="260.68" r="5.28"/><path class="cls-12" d="M997.83,473.12a66,66,0,0,1-30.46,52.54c-53.44,33.86-95.78,11.79-132.85-20a13.88,13.88,0,0,0-6.56-3.17c-5-.88-8.55-.79-13.4-2a11.41,11.41,0,0,1-6.9-5.05c-5.91-9.63-8.42-22.67-9.2-37.43a115.44,115.44,0,0,1,8.81-51.75A88.55,88.55,0,0,1,825,378.94c16.37-16.74,38.47-23.69,64.49-24a59,59,0,0,1,6.78.33c70.11,7.39,95.88,47.66,100.82,91.89A160.53,160.53,0,0,1,997.83,473.12Z"/><path class="cls-13" d="M997.12,447.17C955.24,438,931.94,419.46,908.45,396a80.15,80.15,0,0,1-72.62-8.46,72.07,72.07,0,0,1-10.8-8.63c16.37-16.74,38.47-23.69,64.49-24a59,59,0,0,1,6.78.33C966.41,362.67,992.18,402.94,997.12,447.17Z"/><path class="cls-7" d="M859.47,478.73c-.49,0-1,0-1.48-.07l-.2,0a9,9,0,0,1-5.88-4.8c-2.33-5.2.67-13.2,3.92-20.33l1.82.82c-2.89,6.34-5.93,14.19-3.92,18.69a6.88,6.88,0,0,0,4.56,3.67c7,.63,12.07-4.33,15.32-15.17l1.91.57C872.21,473.13,866.81,478.73,859.47,478.73Z"/><path class="cls-7" d="M872,524.82l-.12-2c16.07-1,34.94-5.6,38.22-32.06l2,.24C908.61,518.94,888.83,523.75,872,524.82Z"/><path class="cls-7" d="M964.38,449.78l-1.65-1.13a15.23,15.23,0,1,0-25.21-17.09l-1.65-1.13a17.23,17.23,0,0,1,28.51,19.35Z"/><path class="cls-7" d="M909.08,574.85a63.06,63.06,0,0,1-18.74-2.91c-22.28-7-37.69-24.92-39.27-45.76l2-.15c1.51,20,16.37,37.28,37.87,44,24.18,7.54,48.61-.28,65.34-20.94l1.55,1.26C944.9,566.32,927.5,574.85,909.08,574.85Z"/><g class="cls-14"><g id="Fill-96"><path class="cls-9" d="M1032.46,656.24a31.7,31.7,0,1,1,1.57-44.7,31.64,31.64,0,0,1-1.57,44.7"/></g></g><g class="cls-14"><g id="Fill-127"><path class="cls-3" d="M1085,607.54a31.7,31.7,0,1,1,1.58-44.71,31.62,31.62,0,0,1-1.58,44.71"/></g></g><rect class="cls-7" x="910.25" y="486.58" width="2" height="8.55" transform="translate(262.68 1297.49) rotate(-79.51)"/><path class="cls-7" d="M930.88,406.84c-9.21-4.29-16.06-11.11-21-16.71-22.33,7.85-42.83,5.91-61-5.77l1.08-1.69c17.75,11.44,37.88,13.24,59.83,5.35l.64-.23.45.51c4.89,5.55,11.69,12.46,20.84,16.72Z"/><path class="cls-7" d="M942.42,368.57c-.55,0-1.28-.38-2.81-2.52-.45-.62-4.31-6.14-3.09-8.39l1.76,1v0c-.4,1.12,2.92,6.86,4.3,7.93a16.7,16.7,0,0,0,7.88-3.49l1.32,1.5a18.88,18.88,0,0,1-9.12,4Z"/><path class="cls-7" d="M809.8,697.05l-.3-2c33.34-5,68.14-15,96.75-53.36l1.6,1.2C878.81,681.88,843.56,692,809.8,697.05Z"/><g class="cls-15"><g id="Fill-94"><path class="cls-3" d="M1030.24,800.56a51,51,0,0,0-50-1.19c-4.46.8-12.23,2.58-20.06-2.06s-10-12.3-11.39-16.52a50.89,50.89,0,1,0-98.33,18.48l-.23-.13a8.18,8.18,0,0,1,.53.93c.23.59.5,1.18.77,1.74,1.48,4,5,13.31-1,23.54-6.23,10.51-16.22,11.67-20.27,12.18-.44,0-.94.08-1.4.11a10,10,0,0,1-1.18,0l.23.14a51,51,0,1,0,53.75,31.88s-6.19-15.3,0-25.81c6.06-10.23,20.69-13.62,31.18-15.78s20.39-4.77,28.91.29,10.52,13.2,11.74,17.61c2,17.54,9.51,32.69,25,41.86a50.73,50.73,0,1,0,51.76-87.26"/></g></g><g class="cls-16"><g id="Fill-69"><path class="cls-17" d="M310.23,1017.77a33.8,33.8,0,0,0-15.52-29.34c-1.91-2.33-5.46-6.25-5.31-12.28s3.86-9.78,5.86-12a33.78,33.78,0,1,0-42.59-51v-.18a4.33,4.33,0,0,1-.37.61c-.26.33-.51.68-.76,1-1.82,2.15-6.07,7.24-14,7-8.11-.2-12-5.61-13.63-7.79-.17-.25-.34-.52-.52-.77a7.32,7.32,0,0,1-.37-.69v.18a33.84,33.84,0,1,0-1,41.47s6.85-8.55,15-8.34c7.89.19,14.6,7.56,19.26,12.93s9.38,10.26,9.22,16.84-4.25,10.38-6.4,12.51c-9.5,6.87-15.84,16.11-16.14,28a33.67,33.67,0,1,0,67.31,1.67"/></g></g><polygon class="cls-18" points="538.24 324.58 798.66 677.09 781.9 693.25 553.49 365.39 538.24 324.58"/><polygon class="cls-19" points="147.78 511.99 132.92 469.6 538.24 324.58 553.49 365.39 147.78 511.99"/><polygon class="cls-20" points="147.78 511.99 553.49 365.39 787.25 701.38 389.46 883.63 147.78 511.99"/><circle class="cls-13" cx="525.89" cy="452.02" r="42.17"/><rect class="cls-7" x="521.74" y="467.62" width="7.8" height="44.36" transform="translate(1051.29 979.6) rotate(-180)"/><path class="cls-11" d="M249.6,668.49l93.9-42L172.31,516.24l197-39.91s93.1,83.2,95.08,83.2,126-45.16,126-45.16L709.2,633.23,519,700.58,498,783l-86,42.4L336.11,687.9,277.67,711Z"/><path class="cls-21" d="M389.46,883.63l-3.56-32.49s412.37-175.64,412.76-174-4.49,22.4-4.49,22.4Z"/><path class="cls-22" d="M292.54,789.68a66.63,66.63,0,0,1-29-6.11c-23.51-11.28-32.87-35.75-36.35-49.33a122.24,122.24,0,0,1,11.17-88c6.43-11.81,13.75-20.47,22.37-26.47,11.12-7.72,24.74-11.23,37.92-14.63a210.2,210.2,0,0,0,22.39-6.65c26.25-10,46-31,51.48-54.8A61.3,61.3,0,0,0,370,507.94,79.12,79.12,0,0,1,337.63,537c-18.41,8.93-34.84,7.89-41.85,7.45-34-2.15-48.33-15.07-54.41-25.53-1.8-3.11-5.56-9.59-4.75-17.74,1.78-17.82,23.72-27.6,30.93-30.81,16.18-7.2,30.77-6.82,41.67-5.68C323.68,466.2,336,470,345.9,476a62.44,62.44,0,0,1,24.36,27.56c17.08-30,9-62.13,6.12-71.29-4.14-13.14-29.87-17-54.76-20.77-22.84-3.44-44.42-6.69-49.93-17-4.5-8.42-1.85-25.08,10.26-37.31,15.55-15.69,56.36-34.32,155,17.18,1.09.57,2.32,1.25,3.69,2,11.34,6.22,32.46,17.78,55.06,13.76,18.59-3.3,35.94-18.09,41.48-34-7.78,1.35-14.74,1-17.88-3.07-3.6-4.68-2.52-14.16,2.22-19.5,2.62-2.95,8.19-6.69,12.81-4.89,7.34,2.85,6.72,17.31,6.62,18.94a32.37,32.37,0,0,1-.93,6c12.07-2.76,25.43-8.82,27.81-9.92l.84,1.82c-4,1.83-17.23,7.73-29.26,10.23-5.38,16.93-23.7,32.88-43.36,36.37a56.2,56.2,0,0,1-9.92.86c-19.36,0-36.55-9.41-46.45-14.83-1.36-.74-2.58-1.41-3.65-2-40.48-21.15-75.1-32.38-102.9-33.4-27.12-1-42,8.08-49.71,15.85-12.12,12.23-13.54,28.16-9.91,35,5,9.43,27.11,12.76,48.46,16,25.49,3.85,51.85,7.82,56.37,22.15,3,9.39,11.25,42.44-6.49,73.22l-.55.95a63.37,63.37,0,0,1,3.26,38.33c-5.65,24.44-25.86,46-52.72,56.22a213,213,0,0,1-22.6,6.72c-13,3.35-26.46,6.81-37.27,14.34-8.36,5.81-15.48,14.24-21.77,25.77a120.32,120.32,0,0,0-11,86.54c3.4,13.25,12.51,37.1,35.29,48,20.78,10,45.35,5.49,62.31,0,12.66-4.12,23.52-9.37,32.48-15.69q-4-.94-7.75-2.19c-22.07-7.31-38.33-23.21-42.44-41.5-4.63-20.58,8.93-42.76,29-47.47,19-4.46,40.72,6.9,48.41,25.32,6.78,16.27,2.8,37-10.14,52.81A77.79,77.79,0,0,1,364,765c14.46,2.73,31,2.53,50.32-.58,61.62-9.94,190.53-46.31,237.33-112.82,14.67-20.84,19.93-43,15.65-66l2-.37c4.39,23.52-1,46.25-16,67.54-47.19,67.06-176.74,103.66-238.65,113.64-20.28,3.28-37.67,3.36-52.77.23-9.4,6.91-20.93,12.6-34.47,17C317.57,786.84,305.26,789.68,292.54,789.68ZM346.31,676a34.38,34.38,0,0,0-7.78.88c-19.06,4.47-31.93,25.54-27.53,45.09,4,17.61,19.71,33,41.12,40a89.14,89.14,0,0,0,9.26,2.52,76.16,76.16,0,0,0,13.41-12.73c12.48-15.24,16.35-35.17,9.84-50.77C378.46,686.2,362.07,676,346.31,676ZM298,466.05a71.53,71.53,0,0,0-29.64,6.15c-6.95,3.09-28.1,12.51-29.76,29.17-.75,7.52,2.79,13.61,4.49,16.54,5.84,10,19.73,22.45,52.8,24.54,6.86.43,22.92,1.45,40.86-7.25A77.24,77.24,0,0,0,369,505.65a60.57,60.57,0,0,0-24.14-28c-9.63-5.83-21.7-9.53-35.86-11A104.55,104.55,0,0,0,298,466.05ZM531.67,330.18c-3.27,0-6.9,2.66-8.71,4.7-4.49,5.07-4.84,13.42-2.13,16.95s9.47,3.67,16.95,2.2a30.58,30.58,0,0,0,1.12-6.54c0-.15.78-14.58-5.35-17A5.22,5.22,0,0,0,531.67,330.18Z"/><polygon class="cls-7" points="634.71 564.49 555.67 564.49 554.55 419.14 642.24 409.64 634.71 564.49"/><path class="cls-23" d="M643.61,399.58l-88.4,16.24a45,45,0,0,1,88.4-16.24Z"/><rect class="cls-7" x="602.65" y="372.27" width="7.02" height="41.39" transform="translate(365.32 -288.1) rotate(37.57)"/><polygon class="cls-21" points="718.93 578.32 721.26 575.03 733.89 584.01 740.12 575.24 731.2 568.78 748.54 544.85 785.18 571.4 767.84 595.33 743.38 577.6 734.88 589.59 734.87 589.58 734.85 589.62 718.93 578.32"/><rect class="cls-7" x="761.05" y="583.21" width="43.93" height="11.43" transform="translate(-153.3 877.47) rotate(-54.08)"/><polygon class="cls-13" points="277.73 599.68 277.73 635.47 318.54 635.47 318.01 598.63 277.73 599.68"/><polygon class="cls-23" points="275.75 596.12 322.24 596.12 322.9 589.25 275.49 588.06 275.75 596.12"/><polygon class="cls-13" points="319.99 697.15 319.99 732.94 360.8 732.94 360.27 696.09 319.99 697.15"/><polygon class="cls-23" points="318.01 693.58 364.5 693.58 365.16 686.72 317.75 685.53 318.01 693.58"/><path class="cls-12" d="M649.81,260.41c-70.94-10-115.71,24.17-117.7,66.38a2.27,2.27,0,0,1-2.67,2.13h0a9.17,9.17,0,0,1-7.47-8c-1.55-13-5.36-20.11-12.16-19.51a9.82,9.82,0,0,0-7.64,5.22c-5.94,11.09,0,33.23,8,57.36a3.87,3.87,0,0,1,.21,1.26,4,4,0,0,1-7.64,1.49l-9.17-22.64A2.77,2.77,0,0,0,491,342.4a2.85,2.85,0,0,0-.91.15,2.77,2.77,0,0,0-1.66,3.68l12.45,30a3.89,3.89,0,0,1,.27,1.42,3.78,3.78,0,0,1-.66,2.14,3.71,3.71,0,0,1-6.42-.56L481.32,352a3.55,3.55,0,0,0-3.21-2.05,3.41,3.41,0,0,0-1.25.23,3.56,3.56,0,0,0-1.95,4.9L490.61,387a4.28,4.28,0,0,1-7.55,4l-15.65-27.4a2.39,2.39,0,0,0-2.1-1.21,2.42,2.42,0,0,0-1.93,1,2.45,2.45,0,0,0-.16,2.67l18.3,31.64a3.41,3.41,0,0,1,.44,1.66,3.28,3.28,0,0,1-.76,2.12,3.33,3.33,0,0,1-5.12,0c-27.84-33.42-33.92-52.86-34.32-68.67a86,86,0,0,1,28-66.05l.45-.4C512.8,228.28,585.41,238.89,649.81,260.41Z"/><polygon class="cls-3" points="132.92 469.6 385.9 851.14 389.46 883.63 147.78 511.99 132.92 469.6"/><polygon class="cls-21" points="134.61 473.88 133.94 469.88 118.55 472.46 116.77 461.78 127.68 459.85 122.5 430.56 77.63 438.5 82.82 467.79 112.77 462.49 115.21 477.08 115.21 477.08 115.22 477.13 134.61 473.88"/><rect class="cls-7" x="66.14" y="433.22" width="11.51" height="44.23" transform="translate(-78.3 19.51) rotate(-10.04)"/><polygon class="cls-21" points="388.34 854.74 387.69 850.83 372.65 853.34 370.9 842.91 381.57 841.02 376.5 812.4 332.67 820.16 337.74 848.78 367 843.6 369.38 857.86 369.39 857.86 369.39 857.91 388.34 854.74"/><rect class="cls-7" x="321.44" y="815" width="11.25" height="43.21" transform="translate(-140.87 69.85) rotate(-10.04)"/><polygon class="cls-21" points="249.3 644.72 249.6 668.49 277.67 710.98 278.46 688.89 249.3 644.72"/><polygon class="cls-24" points="591.92 548.64 593.51 590.64 679.88 590.64 679.88 533.98 591.92 548.64"/><polygon class="cls-20" points="568.55 436.12 566.57 472.24 583.07 472.63 583.21 439.35 568.55 436.12"/><polygon class="cls-20" points="607.38 490.59 605.39 526.71 621.9 527.11 622.03 493.83 607.38 490.59"/><path class="cls-23" d="M514.26,652.13V636.94l18.62-5.15S538,614.88,539,615.28s32.35,0,32.35,0l7.93,13.34,25.09,4.09v13.34Z"/><ellipse class="cls-7" cx="542.68" cy="649.6" rx="10.8" ry="10.13" transform="translate(-303.74 641.98) rotate(-49.61)"/><ellipse class="cls-7" cx="580.98" cy="646.7" rx="10.13" ry="10.8" transform="translate(-287.12 600.23) rotate(-45)"/><polygon class="cls-20" points="286.71 613.42 286.71 624.31 296.02 625.04 296.29 610.71 286.71 613.42"/><polygon class="cls-20" points="342.84 709.56 342.84 720.46 352.15 721.18 352.42 706.86 342.84 709.56"/><polygon class="cls-23" points="595.69 553.29 674.63 541.8 674.63 561.41 596.78 561.41 595.69 553.29"/><rect class="cls-25" x="599.19" y="569.5" width="12.68" height="15.32"/><rect class="cls-25" x="617.94" y="569.5" width="21.26" height="21.13"/><polygon class="cls-18" points="402.58 648.84 402.58 804.99 488.16 804.99 491.73 634.59 402.58 648.84"/><polygon class="cls-6" points="394.52 618.72 394.52 648.18 495.16 630.17 495.16 612.83 394.52 618.72"/><polygon class="cls-7" points="415.65 664.13 413.67 700.25 430.18 700.65 430.31 667.37 415.65 664.13"/><polygon class="cls-7" points="449.73 750.24 447.75 786.36 464.26 786.76 464.39 753.48 449.73 750.24"/><path d="M432,604.14c0-3.5-2.05-5.44-6.08-7-3.28-1.27-4.73-2.36-4.73-4.59,0-1.62,1.24-3.57,4.49-3.57a9.55,9.55,0,0,1,4.52,1.13l.84-2.5a9.54,9.54,0,0,0-3.82-1.09v-3.81h-2.4v3.77c-4.08.36-6.74,3-6.74,6.42s2.4,5.37,6.29,6.75c3.21,1.24,4.48,2.51,4.48,4.73,0,2.41-1.83,4.06-5,4.06a10.9,10.9,0,0,1-5.51-1.55l-.77,2.58a12.27,12.27,0,0,0,6.07,1.52c.41,0,.79,0,1.16,0v3.62h2.4v-4.09A6.48,6.48,0,0,0,432,604.14Z"/><path d="M454.2,602c0-3.49-2.05-5.44-6.08-7-3.28-1.27-4.73-2.37-4.73-4.59,0-1.63,1.23-3.57,4.48-3.57a9.48,9.48,0,0,1,4.52,1.13l.85-2.51a9.93,9.93,0,0,0-3.82-1.09v-3.8H447v3.77c-4.09.36-6.74,3-6.74,6.42s2.4,5.37,6.29,6.75c3.21,1.23,4.48,2.51,4.48,4.73,0,2.4-1.84,4.06-5,4.06a10.87,10.87,0,0,1-5.51-1.55l-.78,2.58a12.42,12.42,0,0,0,6.08,1.51c.4,0,.79,0,1.16,0v3.63h2.4v-4.1A6.47,6.47,0,0,0,454.2,602Z"/><path d="M473.74,600.52c0-3.24-1.91-5-5.65-6.49-3-1.18-4.39-2.2-4.39-4.26,0-1.51,1.15-3.32,4.16-3.32a8.82,8.82,0,0,1,4.2,1l.79-2.33a9.21,9.21,0,0,0-3.55-1v-3.53h-2.23v3.5c-3.79.33-6.26,2.76-6.26,6s2.23,5,5.84,6.27c3,1.15,4.17,2.33,4.17,4.39,0,2.24-1.71,3.78-4.63,3.78a10.09,10.09,0,0,1-5.12-1.45l-.72,2.4a11.39,11.39,0,0,0,5.64,1.41c.38,0,.74,0,1.08,0v3.37h2.23V606.4A6,6,0,0,0,473.74,600.52Z"/><path class="cls-3" d="M1186.5,304.48A40.62,40.62,0,0,0,1229,371.67a14.38,14.38,0,1,0-17.66-12.22,26.17,26.17,0,0,1-20.38-36.38,14.41,14.41,0,1,0-4.44-18.59Z"/><polygon class="cls-13" points="292.65 532.54 201.91 532.54 207.46 338.79 292.65 348.3 292.65 532.54"/><polygon class="cls-23" points="205.28 334.63 304.47 345.99 263 291.84 205.28 334.63"/><polygon class="cls-7" points="217.56 360.45 217.56 391.42 231.83 394.06 232.09 361.51 217.56 360.45"/><polygon class="cls-7" points="243.98 398.22 243.98 429.19 258.24 431.83 258.51 399.28 243.98 398.22"/><polygon class="cls-7" points="218.36 482.22 216.38 518.34 232.88 518.74 233.02 485.45 218.36 482.22"/><rect class="cls-7" x="231.61" y="292.23" width="23.67" height="6.21" transform="translate(-139.15 305.79) rotate(-52.07)"/><path class="cls-7" d="M238.09,291.66a21.15,21.15,0,0,0-3.2-29.74L225.94,273l-13.75-4.54a2.88,2.88,0,0,0,0-.59,3.19,3.19,0,1,0-3.06,3.32,3.12,3.12,0,0,0,1.14-.27l7.78,11.84-9.73,12.08A21.15,21.15,0,0,0,238.09,291.66Zm-19.28-9.77-7.59-11.54a3.23,3.23,0,0,0,.62-.81l13.36,4.4Z"/><path class="cls-12" d="M806.1,734.15C796.8,767.87,789,796,780.43,818.93a271.52,271.52,0,0,1-48-8L556.66,775.21a6.85,6.85,0,0,1-4.87-3.67c-1.89-4.08,1.41-8,5.61-8,2.75-.31,5.7-.54,8.82-.59a90,90,0,0,1,23.15,2.62,4.47,4.47,0,0,0,4.71-3.8,4.55,4.55,0,0,0-2.93-4.88c-9.15-2.43-18.93-5.39-29.21-9s-19.52-7.44-28.07-11.27a5.7,5.7,0,0,1-1-10.28,5.86,5.86,0,0,1,4.13-.64,212.66,212.66,0,0,1,61,13.61,5.62,5.62,0,0,0,6.56-3.74,5.69,5.69,0,0,0-3.45-7c-5.72-1.15-11.83-2.65-18.21-4.59a193.61,193.61,0,0,1-34.15-14.09,5.44,5.44,0,0,1-2.94-7.74,5.76,5.76,0,0,1,6.19-2.63A224.82,224.82,0,0,1,613.38,716a4.65,4.65,0,0,0,4.86-1.6c1.47-1.86,1-5-1.25-6.85-5.67-2.79-11.71-6.09-18-10-4.85-3-9.31-6-13.4-9a5.6,5.6,0,0,1-.76-9,6,6,0,0,1,5.7-1q12.27,3.39,25.35,7.87a427.55,427.55,0,0,1,56.81,24.36,20.11,20.11,0,0,0,16.51-.68c9.1-4.67,15.56-13.73,15.17-34.18v-.72a12.2,12.2,0,0,1,9.7-11.93,7.37,7.37,0,0,1,7.45,3A27.63,27.63,0,0,1,726.38,683a15.58,15.58,0,0,0,13.6,15.8c24.19,2.92,47.51,2.41,69.67-2.77C812.55,708.47,809.58,721.54,806.1,734.15Z"/><polygon class="cls-23" points="370.05 373.32 364.11 544.87 449.29 544.87 461.57 386.79 370.05 373.32"/><polygon class="cls-20" points="409.6 492.38 407.62 528.5 424.13 528.89 424.26 495.61 409.6 492.38"/><polygon class="cls-20" points="381.08 491.58 379.1 527.71 395.6 528.1 395.74 494.82 381.08 491.58"/><polygon class="cls-11" points="444.03 423.44 423.19 400.22 402.35 423.44 398.78 420.23 423.19 393.03 447.6 420.23 444.03 423.44"/><polygon class="cls-11" points="440.08 461.04 419.24 437.82 398.4 461.04 394.82 457.83 419.24 430.63 443.65 457.83 440.08 461.04"/><circle class="cls-6" cx="466.03" cy="511.48" r="30.88"/><rect class="cls-7" x="463" y="522.91" width="5.71" height="32.48" transform="translate(931.7 1078.29) rotate(-180)"/></g></svg>