<?xml version="1.0" encoding="UTF-8"?>
<svg width="1013px" height="433px" viewBox="0 0 1013 433" version="1.1" xmlns="http://www.w3.org/2000/svg" xmlns:xlink="http://www.w3.org/1999/xlink">
    <!-- Generator: Sketch 57.1 (83088) - https://sketch.com -->
    <title>Path 3</title>
    <desc>Created with Sketch.</desc>
    <g id="Page-1" stroke="none" stroke-width="1" fill="none" fill-rule="evenodd">
        <g id="ui-styleguide-2" transform="translate(-199.000000, -1899.000000)" fill="#ECF1F6" fill-rule="nonzero">
            <path d="M1117.54418,1899.48482 C1053.77647,1903.28367 963.891369,1906.27714 901.821904,1909.4143 C865.035693,1911.6896 824.938598,1940.71392 812.489873,1992.59399 C801.31279,2041.4768 766.303675,2067.6936 707.462529,2071.24438 C438.583227,2081.3173 292.802986,2086.35376 270.121804,2086.35376 C236.100031,2086.35376 204.110967,2093.10571 199.181279,2163.11938 C194.251592,2233.13305 290.88643,2299.11524 364.395562,2306.52173 C413.40165,2311.45938 631.105613,2319.73087 1017.50745,2331.33618 C1093.63636,2330.8479 1140.45472,2293.30428 1157.96253,2218.70532 C1184.22425,2106.80688 1200.27894,2032.58227 1209.84144,1986.25415 C1221.4833,1932.66266 1181.3119,1895.68598 1117.54418,1899.48482 Z" id="Path-3"></path>
        </g>
    </g>
</svg>