<?xml version="1.0" encoding="UTF-8"?>
<svg width="1013px" height="433px" viewBox="0 0 1013 433" version="1.1" xmlns="http://www.w3.org/2000/svg" xmlns:xlink="http://www.w3.org/1999/xlink">
    <!-- Generator: Sketch 57.1 (83088) - https://sketch.com -->
    <title>Path 3</title>
    <desc>Created with Sketch.</desc>
    <g id="Page-1" stroke="none" stroke-width="1" fill="none" fill-rule="evenodd">
        <g id="ui-styleguide-2" transform="translate(-252.000000, -646.000000)" fill="#ECF1F6" fill-rule="nonzero">
            <path d="M1170.54418,646.484824 C1106.77647,650.28367 1016.89137,653.277142 954.821904,656.414304 C918.035693,658.689597 877.938598,687.713921 865.489873,739.593992 C854.31279,788.476804 819.303675,814.693601 760.462529,818.244383 C491.583227,828.317299 345.802986,833.353758 323.121804,833.353758 C289.100031,833.353758 257.110967,840.105711 252.181279,910.119383 C247.251592,980.133054 343.88643,1046.11524 417.395562,1053.52173 C466.40165,1058.45938 684.105613,1066.73087 1070.50745,1078.33618 C1146.63636,1077.8479 1193.45472,1040.30428 1210.96253,965.70532 C1237.22425,853.806883 1253.27894,779.582273 1262.84144,733.254148 C1274.4833,679.662661 1234.3119,642.685977 1170.54418,646.484824 Z" id="Path-3" transform="translate(758.422626, 862.276535) scale(-1, 1) translate(-758.422626, -862.276535) "></path>
        </g>
    </g>
</svg>