<?xml version="1.0" encoding="UTF-8"?>
<svg width="961px" height="458px" viewBox="0 0 961 458" version="1.1" xmlns="http://www.w3.org/2000/svg" xmlns:xlink="http://www.w3.org/1999/xlink">
    <!-- Generator: Sketch 57.1 (83088) - https://sketch.com -->
    <title>Path 5</title>
    <desc>Created with Sketch.</desc>
    <g id="Page-1" stroke="none" stroke-width="1" fill="none" fill-rule="evenodd">
        <g id="ui-styleguide-2" transform="translate(-252.000000, -1260.000000)" fill="#ECF1F6" fill-rule="nonzero">
            <path d="M651.168343,1261.06147 C685.542843,1264.62286 738.762978,1271.55058 810.82875,1281.84461 C860.606669,1288.91094 886.633416,1317.97911 888.908992,1369.04911 C892.322357,1445.65412 935.089142,1467.80335 1001.40701,1467.80335 C1045.61893,1467.80335 1093.4744,1469.91021 1144.97343,1474.12391 C1189.74232,1479.01878 1212.12676,1502.92425 1212.12676,1545.84032 C1212.12676,1610.21442 1138.01686,1683.741 1069.71194,1688.24197 C1024.17532,1691.24262 819.510186,1701.12081 455.716532,1717.87652 C352.493931,1718.77597 285.230203,1657.7086 253.925347,1534.67444 C242.285285,1479.99036 283.424419,1451.58015 377.342748,1449.44382 L457.741218,1449.44382 C515.345664,1449.35475 547.705514,1420.11661 554.820767,1361.72938 C565.493647,1274.14855 599.606593,1255.71939 651.168343,1261.06147 Z" id="Path-5"></path>
        </g>
    </g>
</svg>