<svg xmlns="http://www.w3.org/2000/svg" xmlns:xlink="http://www.w3.org/1999/xlink" viewBox="0 0 1295.21 1241.03"><defs><style>.cls-1,.cls-3{fill:#fff;}.cls-1,.cls-10,.cls-11,.cls-13,.cls-16,.cls-19,.cls-20,.cls-23,.cls-24{fill-rule:evenodd;}.cls-2{fill:#73c49d;}.cls-4{fill:#6fc0eb;}.cls-16,.cls-5{fill:#1980b9;}.cls-20,.cls-6{fill:#fccc39;}.cls-11,.cls-7{fill:#eb6d52;}.cls-24,.cls-8{fill:#333;}.cls-10,.cls-9{fill:#e33a60;}.cls-12{mask:url(#mask);}.cls-13,.cls-26{fill:#ee555c;}.cls-14{mask:url(#mask-2-2);}.cls-15{mask:url(#mask-4);}.cls-17{mask:url(#mask-5);}.cls-18{mask:url(#mask-6);}.cls-19,.cls-25{fill:#238da3;}.cls-21{mask:url(#mask-8);}.cls-22{mask:url(#mask-9);}.cls-23{fill:#fab243;}</style><mask id="mask" x="-610.63" y="-658.55" width="1512.67" height="1355.04" maskUnits="userSpaceOnUse"><g id="mask-2"><polygon id="path-1" class="cls-1" points="-610.63 -474.44 -451.33 696.49 902.03 512.37 742.74 -658.55 -610.63 -474.44"/></g></mask><mask id="mask-2-2" x="588.46" y="557.45" width="912.23" height="1054.37" maskUnits="userSpaceOnUse"><g id="mask-2-3" data-name="mask-2"><polygon id="path-1-2" data-name="path-1" class="cls-1" points="588.46 1611.81 1500.69 1611.81 1500.69 557.45 588.46 557.45 588.46 1611.81"/></g></mask><mask id="mask-4" x="-735.9" y="336.81" width="1181.71" height="1365.84" maskUnits="userSpaceOnUse"><g id="mask-2-5" data-name="mask-2"><polygon id="path-1-4" data-name="path-1" class="cls-1" points="-735.9 1702.65 445.81 1702.65 445.81 336.81 -735.9 336.81 -735.9 1702.65"/></g></mask><mask id="mask-5" x="446.49" y="615.78" width="1181.71" height="1365.84" maskUnits="userSpaceOnUse"><g id="mask-2-6" data-name="mask-2"><polygon id="path-1-5" data-name="path-1" class="cls-1" points="446.49 1981.61 1628.2 1981.61 1628.2 615.78 446.49 615.78 446.49 1981.61"/></g></mask><mask id="mask-6" x="-167.6" y="834.63" width="1181.71" height="1365.84" maskUnits="userSpaceOnUse"><g id="mask-2-7" data-name="mask-2"><polygon id="path-1-6" data-name="path-1" class="cls-1" points="-167.6 2200.47 1014.11 2200.47 1014.11 834.63 -167.6 834.63 -167.6 2200.47"/></g></mask><mask id="mask-8" x="227.93" y="-471.74" width="1511.35" height="1616.99" maskUnits="userSpaceOnUse"><g id="mask-2-9" data-name="mask-2"><polygon id="path-1-8" data-name="path-1" class="cls-1" points="1292.48 -471.74 227.93 -85.19 674.71 1145.24 1739.27 758.69 1292.48 -471.74"/></g></mask><mask id="mask-9" x="146.11" y="28.86" width="1181.71" height="1365.84" maskUnits="userSpaceOnUse"><g id="mask-2-10" data-name="mask-2"><polygon id="path-1-9" data-name="path-1" class="cls-1" points="146.11 1394.7 1327.83 1394.7 1327.83 28.86 146.11 28.86 146.11 1394.7"/></g></mask></defs><title>service_providers</title><g id="service_providers"><path class="cls-2" d="M1023.16,881q-5.08,7.14-10.48,14.15c-157.79,205.13-452,243.52-657.12,85.74a476.4,476.4,0,0,1-45-39.34l245.89-248a146.27,146.27,0,0,0,183.07-23.16Z"/><path class="cls-2" d="M921.35,193.31a474.16,474.16,0,0,1,37.54,32.11l-232,231.17q-1.93-1.62-4-3.16a146.28,146.28,0,0,0-185.26,5.66l-238.06-221C463.09,69.47,730.69,46.66,921.35,193.31Z"/><path class="cls-3" d="M283.07,261.52l241,211.12q-3.21,3.64-6.21,7.54a146.25,146.25,0,0,0,16.87,196.76L307.4,919.82c-169.59-159-198.47-423.14-58.51-616.37A477,477,0,0,1,283.07,261.52Z"/><path class="cls-4" d="M307.46,921.86l-1-1a469.63,469.63,0,0,1-58.69-618.26A477.26,477.26,0,0,1,282,260.54l.95-1,1.06.93L526.09,472.5l-1,1.09C523,476,521,478.49,519,481.06c-45.37,59-38,144.56,16.71,194.82l1.07,1ZM283.19,263.54a476,476,0,0,0-33.13,40.76C112.7,493.94,137.39,757.41,307.33,917.77L532.66,677a147.71,147.71,0,0,1-16-197.71c1.72-2.23,3.5-4.42,5.32-6.53Z"/><path class="cls-3" d="M966.07,244.14c167.54,159.21,194.57,420,58.68,610.87L753.36,653.48a146.3,146.3,0,0,0-13.1-184.36Z"/><path class="cls-4" d="M1025.07,857.05,751.37,653.8l.81-1.16c39.44-56,34-132.75-13-182.53l-1-1,1-1,226.81-226,1,1a469.66,469.66,0,0,1,58.86,612.76ZM755.35,653.15,1024.42,853c132.74-187.71,107.73-448.06-58.32-606.82l-223.82,223a147.76,147.76,0,0,1,13.07,184Z"/><path class="cls-3" d="M953.39,935.71S925,973.26,890,973.26s-63.4-37.55-63.4-37.55S855,898.16,890,898.16,953.39,935.71,953.39,935.71Z"/><circle class="cls-5" cx="889.05" cy="936.15" r="31.4"/><path class="cls-6" d="M629.08,642.86l-42.16-88.93,35.41-52.7L709.77,537c13.65,8.42,13.3,22.09-4.94,42.49l-56.48,66.36Z"/><path class="cls-7" d="M639.45,509.22l48.85-11.36a3,3,0,0,1,3.6,3.34l-4.28,28.19Z"/><rect class="cls-5" x="575.29" y="486.63" width="33.58" height="76.41" transform="translate(317.9 -217.35) rotate(28.17)"/><rect class="cls-5" x="629.18" y="456.96" width="6.23" height="43.13" transform="translate(300.8 -241.82) rotate(28.17)"/><ellipse class="cls-7" cx="590.32" cy="596.75" rx="18" ry="12.52" transform="translate(-219.28 375.11) rotate(-30)"/><path class="cls-8" d="M637.72,550.4c-7.34-2.12-14.13-4.87-14.05-10.52a6.62,6.62,0,0,1,2.17-4.69c3.24-3,8.4-3,15.35.07l-.58,1.32c-6.37-2.8-11-2.92-13.79-.33a5.14,5.14,0,0,0-1.7,3.65c-.07,4.7,6.54,7.24,13,9.11Z"/><path class="cls-9" d="M908.54,418.89l99.3,19.77c-73.11,197.78-178.35,326.55-373,331.49C425.69,771,313.93,666.38,275.19,482.62l95.34-46.43c29.38,113.63,80.45,211,270.74,204C774,627,875.9,571.36,909,420.87"/><path class="cls-5" d="M503.59,1109.88C517.74,922,527.32,684.6,553.66,629l29.86,2.2C579.93,656,576.45,698.57,573,742.76c50.62,4.38,98.11,4,139-6.37L698.35,625.73l27-6.59c33.49,130.68,64.19,297.21,93.76,478.23-44.18,9.27-88.1,18.4-110.67,14.49L679.8,918.53c-7.73-39.86-18.33-72.48-40.18-76.74-26.23,4.85-38.46,43.45-40.18,107.37l2.3,162.86Z"/><path class="cls-7" d="M569.58,1110.65l1.9,43a3.77,3.77,0,0,1-3.82,3.94l-95-1.48a2.23,2.23,0,0,1-1.24-4.07l59.91-41.38Z"/><path class="cls-7" d="M743.37,1110.21l2.83,45.65a5,5,0,0,0,5,4.74h87.1a2.3,2.3,0,0,0,1.43-4.11l-64.95-51.38Z"/><path class="cls-8" d="M577.37,637.75l31.29,43.15,34.25-41.17A309.9,309.9,0,0,1,577.37,637.75Z"/><polygon class="cls-8" points="706.97 628.53 675.68 672.66 642.91 639.73 706.97 628.53"/><path class="cls-6" d="M337.93,431.25s-7.06,10.23-24.37,14.82c-34.5,9.14-62.16-25.34-86.09-63.07-1.69-2.67-4.38-7.4-1.76-11.85,1.49-2.53,2.75-3.83,5-4.5,6.26-1.85,9.29,6,14.16,13.81,2.58,4.14,11.31,9.14,18.37,14.19.65.47,1.74.22,2.71-.6l1.06-.89c1.48-1.25,2.07-3.26,1.23-4.13-11.58-11.93-21.23-27.69-21.5-47.65,0-3.06,2.33-6.84,5.48-8.66h0c3.13-1.81,5.9-1,6.39,1.75,3.38,19.16,11.16,36.06,22.11,43.49.81.55,2.22.06,3.27-1.16l.68-.78a2.18,2.18,0,0,0,.46-2.69c-8.84-18.43-18.88-40.09-11.47-61.68,1-2.82,3.65-5.35,6.13-5.87h0c2.24-.46,3.75.84,3.64,3.17-1,19.46,1.93,37.15,11.95,55.29.52.95,1.94.77,3.19-.33l.05-.05a4.09,4.09,0,0,0,1.56-3.36c-1.34-7.46-5.89-35.81-1.61-54.25,1-4.1,5-8.08,8.55-8.54h0c2.55-.32,4.24,1.25,4.17,3.94-1,43.28-4.95,69.63,17.86,82.22,13,3.86,9.33-19.83,19.78-34,3.8-5.14,8.54-5,11.74-2.74l2,1.81c3.17,2.22,3.53,9.28-.39,14.29C350.31,378.71,349.21,416.42,337.93,431.25Z"/><path class="cls-6" d="M915.9,404.24s7.06,10.23,24.37,14.82c34.5,9.14,62.16-25.34,86.08-63.07,1.7-2.67,4.39-7.4,1.77-11.84-1.49-2.54-2.75-3.83-5-4.51-6.26-1.84-9.29,6-14.17,13.81-2.58,4.14-11.3,9.14-18.37,14.2-.65.46-1.73.22-2.71-.61l-1.05-.89c-1.48-1.25-2.08-3.26-1.23-4.13,11.58-11.93,21.23-27.69,21.5-47.65,0-3.06-2.34-6.83-5.48-8.65h0c-3.13-1.81-5.9-1-6.39,1.75-3.38,19.15-11.16,36-22.12,43.48-.81.55-2.22.06-3.27-1.16l-.67-.78a2.16,2.16,0,0,1-.46-2.68c8.84-18.44,18.88-40.1,11.47-61.69-1-2.82-3.66-5.35-6.14-5.86h0c-2.24-.47-3.75.83-3.63,3.16,1,19.46-1.94,37.15-12,55.3-.52.94-1.95.77-3.19-.34l-.05,0a4.07,4.07,0,0,1-1.56-3.37c1.33-7.45,5.89-35.81,1.6-54.24-1-4.11-5-8.09-8.55-8.55h0c-2.55-.32-4.23,1.25-4.17,3.94,1,43.28,4.95,69.63-17.85,82.23-13,3.85-9.33-19.84-19.78-34-3.8-5.15-8.55-5-11.75-2.75l-2,1.81c-3.17,2.22-3.53,9.28.38,14.3C903.52,351.71,904.62,389.42,915.9,404.24Z"/><rect class="cls-8" x="134.04" y="751.03" width="218.46" height="7.29"/><polygon class="cls-10" points="209.18 750.96 132.65 750.96 132.65 713.13 212.19 716.1 209.18 750.96"/><polygon class="cls-11" points="300.51 750.81 221.78 750.81 221.78 682.78 307.85 676.74 300.51 750.81"/><polygon class="cls-8" points="182.18 667.89 214.12 711.26 124.6 708.22 182.18 667.89"/><polygon class="cls-6" points="148.64 746.67 163.35 746.67 163.35 718.1 147.12 717.25 148.64 746.67"/><polygon class="cls-6" points="268.86 714.86 280.8 714.86 280.8 691.68 267.63 690.99 268.86 714.86"/><polygon class="cls-6" points="258.52 723.1 246.59 723.1 246.59 746.27 259.76 746.96 258.52 723.1"/><polygon class="cls-2" points="180.11 747.92 192.46 746.81 192.46 725.12 180.11 723.98 180.11 747.92"/><polygon class="cls-2" points="240.51 718.6 252.86 717.49 252.86 695.8 240.51 694.66 240.51 718.6"/><polygon class="cls-2" points="285.7 723.25 273.35 724.36 273.35 746.04 285.7 747.18 285.7 723.25"/><g class="cls-12"><g id="Fill-78"><path class="cls-13" d="M373.66,233.17A22.31,22.31,0,0,0,348.59,214c-.5.07-1,.16-1.47.25-4.35.68-17.33,2-24.49-4.14-8.69-7.52-10.91-22.89-10.91-22.89a22.25,22.25,0,1,0-19,25.14c.46-.06.9-.13,1.34-.22,4-.5,15.63-1.44,23.7,3.44,9.82,6,11.79,23.58,11.79,23.58l0-.05v0a22.26,22.26,0,1,0,44.11-6"/></g></g><g class="cls-14"><g id="Fill-90"><path class="cls-1" d="M832.12,824.34a17.26,17.26,0,1,1-17.26-17.17,17.23,17.23,0,0,1,17.26,17.17"/></g></g><g class="cls-14"><g id="Fill-116"><path class="cls-1" d="M832.12,785.36a17.26,17.26,0,1,1-17.26-17.18,17.22,17.22,0,0,1,17.26,17.18"/></g></g><g class="cls-15"><g id="Fill-121"><path class="cls-16" d="M225.13,576.38a22.27,22.27,0,0,0-10.79-19.06c-1.3-1.49-3.72-4-3.72-8s2.4-6.49,3.7-8a22.29,22.29,0,1,0-29.12-32.81v-.12s-.08.15-.24.41-.33.45-.49.67a11.35,11.35,0,0,1-9.15,4.86,11.18,11.18,0,0,1-9.17-4.9l-.35-.5c-.18-.28-.27-.44-.27-.44v.1a22.27,22.27,0,1,0,0,27.3s4.41-5.73,9.79-5.73,9.82,4.74,13,8.2,6.4,6.58,6.4,10.92-2.66,6.89-4.05,8.33c-6.18,4.67-10.24,10.86-10.24,18.71a22.35,22.35,0,0,0,44.7,0"/></g></g><g class="cls-17"><g id="Fill-128"><path class="cls-16" d="M955.45,778.27a22.3,22.3,0,0,0-22.35,22.25c0,.51,0,1,0,1.5.09,4.4-.31,17.45-7.41,23.71-8.62,7.6-24.16,7.71-24.16,7.71a22.26,22.26,0,1,0,22.36,22.25c0-.45,0-.91-.05-1.36,0-4,.69-15.68,6.62-23,7.21-8.93,24.94-8.51,24.94-8.51l-.05,0h.05a22.26,22.26,0,1,0,0-44.52"/></g></g><g class="cls-18"><g id="Fill-125"><path class="cls-19" d="M418.77,1019.38a22.36,22.36,0,1,1-22.36-22.25,22.31,22.31,0,0,1,22.36,22.25"/></g></g><g class="cls-18"><g id="Fill-144"><path class="cls-20" d="M428.54,1019.37a22.36,22.36,0,1,1,22.36,22.26,22.3,22.3,0,0,1-22.36-22.26"/></g></g><g class="cls-21"><g id="Fill-146"><path class="cls-20" d="M1096.59,724.58a21.44,21.44,0,0,0-13.72,15.94c-.93,1.67-2.42,4.66-6,6s-6.67,0-8.42-.7a21.4,21.4,0,1,0-20.21,36.89l-.11,0s.17,0,.45.08l.77.22a10.82,10.82,0,0,1,7.38,6.6,10.64,10.64,0,0,1-1.45,9.84c-.11.15-.23.31-.34.48a4.07,4.07,0,0,1-.32.38l.11,0a21.43,21.43,0,1,0,24.7-9s-6.63-2.07-8.38-6.9,1.09-10.35,3.19-14.34,3.88-7.9,7.8-9.32,7.1.1,8.85.88c6.24,4,13.17,5.63,20.27,3a21.33,21.33,0,1,0-14.56-40.1"/></g></g><g class="cls-22"><g id="Fill-131"><path class="cls-23" d="M851.17,161.66a22.35,22.35,0,1,1,22.36,22.25,22.32,22.32,0,0,1-22.36-22.25"/></g></g><g class="cls-22"><g id="Fill-147"><path class="cls-16" d="M871.4,81.34a22.29,22.29,0,0,0-22.35,22.25c0,.5,0,1,.05,1.49.08,4.4-.32,17.45-7.42,23.72-8.61,7.59-24.15,7.71-24.15,7.71a22.25,22.25,0,1,0,22.36,22.25c0-.46,0-.91,0-1.36,0-4,.69-15.69,6.61-23,7.22-8.92,24.95-8.5,24.95-8.5l0,0h0a22.25,22.25,0,1,0,0-44.5"/></g></g><polygon class="cls-24" points="1012.45 1178.06 303.68 1178.06 315.31 1163.35 1005.86 1167.85 1012.45 1178.06"/><polygon class="cls-24" points="1002.03 584.81 1001.07 578.73 1024.47 575.06 1021.92 558.83 1005.27 561.28 998.7 516.62 1067.09 506.55 1073.67 551.21 1028.01 557.93 1031.49 580.11 1031.49 580.12 1031.5 580.19 1002.03 584.81"/><rect class="cls-8" x="1074.69" y="494.48" width="17.47" height="67.11" transform="translate(-65.37 163.47) rotate(-8.38)"/><rect class="cls-7" x="956.36" y="663.9" width="52.96" height="52.96" transform="translate(-205.35 514.86) rotate(-26.68)"/><path class="cls-7" d="M945.17,674.78c-6.74-13.41-1.87-29.53,10.87-35.92s28.57-.7,35.31,12.71l-5.81,2.92c-5.13-10.2-17-14.61-26.58-9.82s-13.11,17-8,27.19Z"/><polygon class="cls-11" points="386.78 917.87 291.93 917.87 291.93 782.17 389.64 793.7 386.78 917.87"/><rect class="cls-8" x="269.75" y="917.54" width="162.92" height="4.83"/><circle class="cls-25" cx="416.42" cy="871.76" r="24.15"/><rect class="cls-8" x="413.9" y="881.97" width="4.61" height="35.13"/><polygon class="cls-20" points="316.08 910.84 307.74 910.84 307.74 813.13 317.51 819.06 316.08 910.84"/><polygon class="cls-20" points="343.25 912.16 334.91 912.16 334.91 814.45 344.84 815.44 343.25 912.16"/><polygon class="cls-20" points="369.27 910.84 360.93 910.84 360.49 816.43 369.27 813.13 369.27 910.84"/><rect class="cls-8" x="303.41" y="416.28" width="6.15" height="3.61" transform="translate(-193.67 281.79) rotate(-38.51)"/><path class="cls-8" d="M1067.63,528.54l-1-3.49a76,76,0,0,0,11.28-4l1.48,3.3A80.49,80.49,0,0,1,1067.63,528.54Zm22.83-10.24-2-3a82.11,82.11,0,0,0,9.57-7.25l2.39,2.71A83.61,83.61,0,0,1,1090.46,518.3Zm18.75-16.56-2.77-2.31a77.06,77.06,0,0,0,6.94-9.77l3.1,1.85A79.2,79.2,0,0,1,1109.21,501.74Zm12.8-21.52-3.37-1.31c.65-1.69,1.24-3.41,1.76-5.13.62-2.07,1.14-4.2,1.57-6.35l3.54.71c-.44,2.25-1,4.5-1.65,6.68C1123.32,476.63,1122.69,478.44,1122,480.22Zm4.9-24.58-3.62-.1c0-.7,0-1.41,0-2.11a76.15,76.15,0,0,0-.64-9.86l3.59-.46a81.4,81.4,0,0,1,.67,10.32C1126.94,454.17,1126.93,454.9,1126.91,455.64Zm-355.39-8.9v-3.62c4.1,0,8.21-.08,12.23-.22l.12,3.61C779.8,446.65,775.65,446.72,771.52,446.74Zm-12.33-.14c-2.37-.06-4.79-.14-7.18-.24-1.72-.07-3.43-.15-5.14-.24l.19-3.61q2.55.14,5.1.24c2.37.1,4.77.18,7.12.23Zm37-.69L796,442.3c4.08-.26,8.18-.6,12.18-1l.36,3.6C804.45,445.3,800.31,445.64,796.18,445.91Zm-61.64-.68c-4.28-.39-8.41-.89-12.29-1.46l.53-3.58c3.81.57,7.88,1.05,12.1,1.45Zm86.21-1.78-.49-3.58c4.06-.55,8.12-1.19,12.07-1.88l.63,3.55C829,442.25,824.85,442.89,820.75,443.45Zm-110.7-1.92c-4.16-.92-8.2-2-12-3.2l1.09-3.45c3.71,1.18,7.65,2.23,11.71,3.12Zm135-2.38-.77-3.53c4-.88,8-1.85,11.86-2.88l.93,3.49C853.18,437.28,849.13,438.26,845.08,439.15ZM686.35,434a100.42,100.42,0,0,1-11.14-5.67l1.84-3.11a99.34,99.34,0,0,0,10.74,5.47ZM869,432.78l-1.09-3.45c3.89-1.23,7.77-2.57,11.52-4l1.26,3.39C876.86,430.17,872.92,431.52,869,432.78Zm251.27-1a82.1,82.1,0,0,0-4.17-11.25l3.28-1.51a83.85,83.85,0,0,1,4.36,11.76Zm-228.1-7.7-1.44-3.31c3.74-1.62,7.45-3.35,11-5.15l1.62,3.23C899.71,420.72,895.94,422.48,892.14,424.12Zm-227.27-2.86a87.16,87.16,0,0,1-9.28-8.42l2.62-2.49a84,84,0,0,0,8.89,8.07ZM914.26,413l-1.8-3.13q1.72-1,3.42-2c2.32-1.4,4.65-2.87,6.93-4.38l2,3c-2.32,1.54-4.7,3-7.07,4.46C916.59,411.68,915.43,412.36,914.26,413Zm196-3a75.7,75.7,0,0,0-7.34-9.47l2.67-2.43a79.83,79.83,0,0,1,7.7,9.92Zm-790.65-.18-2.27-2.81c3.47-2.8,6.58-5.33,9.5-7.75l2.3,2.79C326.21,404.54,323.09,407.09,319.61,409.89Zm328.1-6.84A68.15,68.15,0,0,1,641.66,392l3.31-1.43c.4.92.82,1.83,1.26,2.74,3.87-.94,7.73-2.05,11.47-3.33l1.16,3.42c-3.55,1.21-7.21,2.29-10.89,3.2q1.28,2.25,2.74,4.43Zm-37.85-2.57c-4.14-.16-8.31-.51-12.4-1l.47-3.59c4,.52,8,.87,12.07,1Zm12.44-.08-.19-3.61c4-.2,8.08-.6,12.06-1.17l.51,3.57C630.6,399.78,626.43,400.19,622.3,400.4Zm312.6-1.09-2.19-2.87c3.2-2.45,6.37-5,9.41-7.7l2.38,2.72C941.4,394.17,938.17,396.82,934.9,399.31Zm-349.69-2.05c-4.05-.92-8.09-2-12-3.32l1.13-3.44c3.8,1.25,7.73,2.34,11.66,3.23Zm-211.76-2.4c-2.87,0-5.78-.05-8.66-.15l.12-3.61c4.07.14,8.15.18,12.2.12l.05,3.62Zm16.07-.53-.24-3.6c4.07-.27,8.15-.65,12.14-1.13l.43,3.58C397.8,393.67,393.65,394.06,389.52,394.33Zm-50.95-.13-2.34-2.75c3.22-2.75,6.32-5.46,9.22-8.05l2.41,2.69q-1.87,1.68-3.86,3.42c2.92.34,5.85.63,8.74.87l-.3,3.61c-4-.34-8.08-.77-12.11-1.29Zm755.58-1.74c-1.37-1.07-2.79-2.1-4.23-3-1.86-1.24-3.81-2.42-5.79-3.5l1.74-3.17c2.07,1.13,4.1,2.36,6.05,3.66,1.51,1,3,2.09,4.46,3.22Zm-680.06-1.1-.63-3.55c4-.71,8-1.54,11.93-2.47l.83,3.52C422.25,389.8,418.17,390.64,414.09,391.36Zm-86.17-.56c-4-.71-8.1-1.53-12.12-2.43l.79-3.52c4,.88,8,1.69,12,2.39Zm233.66-1.32-.39-.17c-3.64-1.61-7.25-3.43-10.75-5.4l1.77-3.15c3.4,1.91,6.91,3.68,10.45,5.25l.38.17Zm108.86-.67L669,385.52c1.08-.49,2.16-1,3.23-1.52,2.57-1.26,5.1-2.62,7.49-4l1.85,3.11c-2.48,1.47-5.09,2.88-7.76,4.18C672.67,387.79,671.55,388.31,670.44,388.81Zm-232.25-3.16-1-3.46c3.88-1.17,7.76-2.47,11.54-3.86l1.25,3.39C446.09,383.13,442.14,384.46,438.19,385.65Zm-134.39-.23c-1.48-.4-2.95-.81-4.43-1.24-2.52-.72-5-1.48-7.43-2.25l1.1-3.44c2.37.75,4.84,1.5,7.33,2.22,1.46.42,2.91.82,4.37,1.22ZM953.56,383,951,380.44c2.87-2.87,5.67-5.85,8.31-8.88L962,374C959.34,377,956.49,380.07,953.56,383Zm119.65-2.09a100.78,100.78,0,0,0-11.52-3.55l.86-3.51a103.51,103.51,0,0,1,11.94,3.68ZM637.8,380a81.43,81.43,0,0,1-1.72-12.44l3.61-.22a76.65,76.65,0,0,0,1.64,11.87Zm-357.55-2.15c-3.94-1.49-7.79-3.09-11.45-4.74l1.49-3.29c3.59,1.62,7.37,3.19,11.24,4.65Zm76.68-.1-2.48-2.63c3-2.87,6-5.75,8.73-8.55l2.58,2.54C363,371.94,360,374.84,356.93,377.75Zm183-.45c-3.38-2.35-6.71-4.9-9.88-7.57l2.33-2.76c3.08,2.6,6.32,5.08,9.61,7.36ZM461.42,377l-1.47-3.3c3.69-1.65,7.36-3.45,10.91-5.35l1.7,3.19C468.94,373.51,465.19,375.35,461.42,377Zm230.43-1-2.23-2.84a74.19,74.19,0,0,0,8.81-8.12l2.66,2.44A77.43,77.43,0,0,1,691.85,376Zm357.95-1c-3.81-.56-7.77-1-12.08-1.33l.27-3.6c4.4.34,8.44.78,12.34,1.36Zm-24.27-1.94c-3.63-.11-7.64-.16-12.23-.16v-3.62c4.63,0,8.67.06,12.34.17Zm-35.94,0h-.86v-3.62h.85c3.79,0,7.59,0,11.4-.06l0,3.62C997.2,373,993.39,373.06,989.59,373.06Zm-13.19-.17c-1.41,0-2.82-.1-4.22-.16-2.71-.12-5.44-.28-8.13-.5l.28-3.6c2.65.21,5.34.38,8,.49q2.08.09,4.17.15Zm-24.66-2c-4.12-.56-8.23-1.23-12.23-2l.7-3.55c3.93.77,8,1.43,12,2Zm-694.06-3.3c-3.72-2-7.31-4.14-10.69-6.34l2-3c3.3,2.15,6.81,4.23,10.43,6.19Zm669.75-1.45c-4-1-8-2.21-11.9-3.49l1.13-3.43c3.8,1.25,7.73,2.4,11.67,3.42Zm-444.14-.82-1.93-3.06c3.44-2.17,6.81-4.47,10-6.85l2.15,2.9C490.25,360.76,486.8,363.12,483.29,365.34Zm486.61-1L967,362.15c2.45-3.22,4.82-6.56,7-9.92l3,2C974.82,357.64,972.41,361.05,969.9,364.34Zm-449-3c-2.9-2.93-5.71-6-8.34-9.23l2.79-2.3c2.56,3.11,5.29,6.13,8.12,9Zm-146.61-1.14-2.67-2.43c2.78-3.05,5.47-6.15,8-9.2l2.78,2.31C379.81,353.92,377.07,357.06,374.26,360.15Zm529.63-1.75c-3.86-1.57-7.67-3.28-11.32-5.09l1.61-3.24c3.57,1.77,7.3,3.44,11.07,5Zm-195.21-1-3.1-1.86a49.12,49.12,0,0,0,4.85-10.78l3.45,1.07A52.37,52.37,0,0,1,708.68,357.42Zm-69-2.13-3.61-.23c.14-2.16.35-4.39.61-6.63.24-2,.52-3.9.84-5.75l3.56.61c-.31,1.79-.58,3.67-.81,5.57C640.05,351,639.85,353.19,639.72,355.29ZM236.89,354a120.53,120.53,0,0,1-9.36-8.24l2.53-2.58a117.07,117.07,0,0,0,9.07,8Zm266.35-3.45-2.37-2.73c3.07-2.66,6-5.46,8.83-8.32l2.58,2.53C509.43,345,506.39,347.83,503.24,350.56Zm378.43-3.19c-3.58-2.13-7.08-4.42-10.41-6.8l2.11-2.94c3.24,2.32,6.65,4.55,10.15,6.64Zm101.84-3.77-3.16-1.76c2-3.55,3.83-7.19,5.5-10.83l3.28,1.51C987.42,336.24,985.53,340,983.51,343.6Zm-478.44-1.5c-2.34-3.42-4.53-7-6.53-10.59l3.16-1.75c1.94,3.51,4.08,7,6.35,10.31Zm-115-1-2.9-2.16c2.43-3.27,4.79-6.63,7-10l3,2C394.9,334.37,392.51,337.78,390,341.11Zm-170.91-4.57a98.64,98.64,0,0,1-7.23-10.2l3.07-1.9a96.73,96.73,0,0,0,7,9.83Zm493-3.32a41.16,41.16,0,0,0-1.74-11.6l3.47-1a45.44,45.44,0,0,1,1.89,12.62Zm149.37-.32c-.73-.63-1.46-1.26-2.18-1.91-2.36-2.1-4.67-4.33-6.88-6.63l2.61-2.51c2.14,2.24,4.39,4.4,6.67,6.45.71.62,1.42,1.25,2.13,1.86Zm-340.89-.14-2.8-2.28c2.57-3.16,5-6.43,7.2-9.73l3,2C525.71,326.15,523.22,329.52,520.58,332.76Zm123.36-1.16-3.45-1.1a68.61,68.61,0,0,1,4.89-11.61l3.18,1.72A63.29,63.29,0,0,0,643.94,331.6ZM993.87,321l-3.39-1.24c1.39-3.81,2.64-7.7,3.69-11.55l3.48.95C996.58,313.15,995.3,317.13,993.87,321Zm-590.22-.62-3.13-1.8c2-3.55,4-7.17,5.7-10.74l3.25,1.58C407.69,313.11,405.73,316.8,403.65,320.42Zm89.37-.07c-1.67-3.8-3.16-7.72-4.44-11.63L492,307.6c1.24,3.8,2.69,7.6,4.31,11.31Zm-287.06-5a110.73,110.73,0,0,1-4.62-11.6l3.43-1.14a107.25,107.25,0,0,0,4.47,11.21Zm638.28-.4c-2.56-3.25-5-6.66-7.23-10.14l3-2c2.17,3.39,4.54,6.7,7,9.86Zm-309.86-2.9-3.19-1.69a111.39,111.39,0,0,0,5.08-10.95l3.36,1.34A115.19,115.19,0,0,1,534.38,312.06Zm171-1a30.52,30.52,0,0,0-8.09-8.2l2-3a34,34,0,0,1,9,9.16Zm-50-.1-2.67-2.44a44.17,44.17,0,0,1,9.87-8.09l1.86,3.1A40.51,40.51,0,0,0,655.35,310.94Zm19.85-11.85-.81-3.53a33.72,33.72,0,0,1,12.89-.5l-.58,3.57A29.92,29.92,0,0,0,675.2,299.09Zm-260.68-1-3.36-1.35c1.53-3.79,2.9-7.64,4.09-11.43l3.45,1.08C417.48,290.31,416.08,294.25,414.52,298.13Zm585.88-1.06-3.56-.64c.72-4,1.26-8,1.6-12l3.6.31C1001.69,288.84,1001.14,293,1000.4,297.07Zm-515.06-.4a83.57,83.57,0,0,1-1.64-12.44l3.61-.18a78.85,78.85,0,0,0,1.57,11.89ZM830.8,294c-1.89-3.71-3.61-7.53-5.11-11.36l3.37-1.32a120.48,120.48,0,0,0,5,11ZM198,291.73a120,120,0,0,1-2-12.31l3.59-.39A115.57,115.57,0,0,0,201.58,291Zm345.55-2.83-3.5-.9a62,62,0,0,0,1.85-11.77l3.61.21A65.24,65.24,0,0,1,543.59,288.9ZM421.92,274.42l-3.53-.78c.88-4,1.58-8,2.08-11.93l3.59.45C423.54,266.21,422.82,270.34,421.92,274.42Zm577-2.08c0-.86,0-1.72,0-2.58-.1-3.15-.31-6.35-.65-9.51l3.6-.38c.34,3.25.56,6.54.66,9.79,0,.88,0,1.76,0,2.64Zm-511-.16-3.56-.58A46.1,46.1,0,0,1,488,259.41l3.28,1.53A43,43,0,0,0,487.89,272.18Zm333.88-1.36a114.83,114.83,0,0,1-2.63-12.19l3.57-.57a109.65,109.65,0,0,0,2.55,11.81ZM195.35,267v-.61c0-3.94.19-7.92.57-11.84l3.6.35c-.37,3.81-.56,7.67-.56,11.49V267Zm346-2.56a32.28,32.28,0,0,0-3.89-10.9l3.11-1.85a36.46,36.46,0,0,1,4.34,12.11ZM498,251.52l-2.51-2.6a37.06,37.06,0,0,1,10.64-7.21l1.47,3.3A33.54,33.54,0,0,0,498,251.52Zm-73-1.77-3.61-.1c0-1,0-2,0-3,0-3-.13-6-.38-9.06l3.6-.3c.26,3.11.39,6.26.39,9.36C425.07,247.67,425.06,248.71,425,249.75Zm571.35-1.46c-.79-3.94-1.78-7.89-2.94-11.75l3.46-1c1.19,4,2.21,8,3,12.07ZM817.93,246.2c0-1.29-.08-2.59-.08-3.87,0-2.89.13-5.79.38-8.63l3.6.32c-.24,2.73-.36,5.53-.36,8.31,0,1.24,0,2.49.07,3.73Zm-288.41-.7q-.49-.3-1-.57a21,21,0,0,0-9.76-2.38l0-3.62a24.6,24.6,0,0,1,11.42,2.8c.41.21.8.44,1.19.67Zm-328.21-2.57-3.54-.72a116.76,116.76,0,0,1,3.13-12.07l3.44,1.09A117.36,117.36,0,0,0,201.31,242.93Zm218.11-17.32a110.8,110.8,0,0,0-2.95-11.71l3.45-1.08a115.75,115.75,0,0,1,3.05,12.1Zm570-.51c-1.51-3.73-3.2-7.44-5-11l3.22-1.65c1.88,3.67,3.62,7.48,5.17,11.31Zm-165.78-3-3.53-.78c.1-.45.2-.9.31-1.34a83.09,83.09,0,0,1,3.31-10.67l3.37,1.3a81.07,81.07,0,0,0-3.17,10.2C823.85,221.26,823.75,221.69,823.66,222.12Zm-615-2.2-3.31-1.45A107.6,107.6,0,0,1,211,207.35l3.11,1.82A106.41,106.41,0,0,0,208.61,219.92Zm769.76-16.33c-2.17-3.41-4.52-6.73-7-9.89l2.85-2.22c2.53,3.24,5,6.66,7.18,10.16Zm-566.13-1a100.23,100.23,0,0,0-5.5-10.73l3.11-1.84a106.53,106.53,0,0,1,5.7,11.11Zm420-2.84L829.07,198a93.31,93.31,0,0,1,6.84-10.49l2.88,2.17A88.23,88.23,0,0,0,832.23,199.75Zm-611.48-.65-2.9-2.16a122,122,0,0,1,7.93-9.6l2.67,2.44A115,115,0,0,0,220.75,199.1Zm742.73-14.55a110.25,110.25,0,0,0-8.81-8.27l2.32-2.77a115.8,115.8,0,0,1,9.1,8.54ZM400,181.9a88.37,88.37,0,0,0-8-9l2.52-2.59a91.1,91.1,0,0,1,8.35,9.34Zm-162.91-.61-2.41-2.7c3.07-2.74,6.33-5.37,9.69-7.83l2.13,2.92C243.21,176.07,240,178.63,237.06,181.29Zm609.59-.74L844.07,178a94.23,94.23,0,0,1,9.35-8.32l2.22,2.85A91.93,91.93,0,0,0,846.65,180.55ZM945,169.07a92,92,0,0,0-10.47-5.93l1.57-3.25A94.72,94.72,0,0,1,947,166.05ZM256.57,167l-1.85-3.1c3.54-2.11,7.23-4.09,11-5.88l1.56,3.26C263.61,163,260,164.94,256.57,167Zm609.05-1.14-1.81-3.13a83.64,83.64,0,0,1,11.3-5.44l1.32,3.36A81.84,81.84,0,0,0,865.62,165.85Zm-482.85-.64c-2.12-1.53-4.33-3-6.56-4.26-1.2-.69-2.44-1.36-3.68-2l1.65-3.22c1.3.67,2.59,1.37,3.84,2.1a79.51,79.51,0,0,1,6.86,4.45Zm540.58-6.46a73.5,73.5,0,0,0-11.68-2.61l.49-3.58a77.21,77.21,0,0,1,12.26,2.73Zm-35.47-1.6-.77-3.53A73,73,0,0,1,899.58,152l.16,3.61A70,70,0,0,0,887.88,157.15Zm-609.48-.61-1.26-3.39c3.88-1.44,7.87-2.72,11.85-3.81l.95,3.49C286.06,153.89,282.18,155.13,278.4,156.54Zm83.08-2.32a100,100,0,0,0-11.61-3.28l.78-3.53a104.5,104.5,0,0,1,12,3.4Zm-59.72-4-.63-3.56c4.09-.72,8.24-1.26,12.35-1.59l.29,3.6C309.78,149,305.74,149.48,301.76,150.19ZM338,149c-3-.33-6-.55-9.1-.67-1,0-2-.07-3-.08l.05-3.61c1,0,2.05,0,3.07.08,3.15.12,6.3.35,9.36.69Z"/><path class="cls-8" d="M1048.59,531.16v-3.61c2,0,4-.11,6-.3l.34,3.6C1052.8,531.05,1050.68,531.15,1048.59,531.16Z"/><path class="cls-26" d="M634,308.43a15.45,15.45,0,0,1-2.57-.22V182H504.89v-3.87H631.43V51.51a15.45,15.45,0,0,1,2.57-.22c.44,0,.87,0,1.3.06V178.08H761.83V182H635.3V308.37C634.87,308.41,634.44,308.43,634,308.43Z"/><path class="cls-26" d="M588.38,227.72l-15.81,15.82a11.52,11.52,0,0,1-2.88-2.6l16.1-16.1,25.67-25.67L628.68,182l1.94-1.94-1.94-1.93-17.22-17.23-25.63-25.62-16.14-16.15a11.38,11.38,0,0,1,3-2.52l15.71,15.7,25.83,25.85,17.24,17.22,1.93,1.94,61.7-61.7a11.29,11.29,0,0,1,2.79,2.68l-16,16-26.56,26.56L638,178.08,636.1,180,638,182l17.23,17.23,26.31,26.31,16,16a11.14,11.14,0,0,1-2.75,2.73l-61.45-61.45-1.93,1.93-17.24,17.23Z"/><path class="cls-13" d="M634,81.67a14.45,14.45,0,0,1-2.57-.22,15.19,15.19,0,0,1,0-29.94,15.45,15.45,0,0,1,2.57-.22c.44,0,.87,0,1.3.06a15.19,15.19,0,0,1,0,30.26C634.87,81.65,634.44,81.67,634,81.67Z"/><path class="cls-13" d="M634,308.43a15.45,15.45,0,0,1-2.57-.22,15.19,15.19,0,0,1,0-29.94,15.45,15.45,0,0,1,2.57-.22c.44,0,.87,0,1.3.06a15.19,15.19,0,0,1,0,30.26C634.87,308.41,634.44,308.43,634,308.43Z"/><circle class="cls-26" cx="519.74" cy="179.57" r="15.19"/><circle class="cls-26" cx="746.7" cy="180.55" r="15.19"/><circle class="cls-26" cx="633.36" cy="180.01" r="29.1"/><path class="cls-13" d="M688.63,136.52a11.41,11.41,0,0,1-6.81-2.24,11.48,11.48,0,0,1-4.66-9.22,11.46,11.46,0,0,1,17.9-9.49,11.46,11.46,0,0,1,5,9.49A11.46,11.46,0,0,1,688.63,136.52Z"/><path class="cls-13" d="M688.24,246.28a11.46,11.46,0,0,1-9.39-18.05,11.06,11.06,0,0,1,2.72-2.74,11.46,11.46,0,0,1,16,16,11.14,11.14,0,0,1-2.75,2.73A11.38,11.38,0,0,1,688.24,246.28Z"/><path class="cls-13" d="M578.68,245.3a11.39,11.39,0,0,1-9-4.36,11.33,11.33,0,0,1-2.48-7.11,11.47,11.47,0,1,1,11.47,11.47Z"/><path class="cls-13" d="M578.48,137.9A11.48,11.48,0,0,1,567,126.43,11.49,11.49,0,0,1,578.48,115a11.47,11.47,0,0,1,9.88,17.3,11.63,11.63,0,0,1-2.53,3A11.38,11.38,0,0,1,578.48,137.9Z"/><path class="cls-3" d="M497,207.76l0,0a41.72,41.72,0,0,1,.58-59l4,4.07A36,36,0,0,0,501,203.7Z"/><path class="cls-3" d="M484.93,219.61a56.34,56.34,0,0,1-16.16-41,59,59,0,0,1,17.86-41l4,4.07a53.34,53.34,0,0,0-16.16,37.07A50.7,50.7,0,0,0,489,215.62Z"/><path class="cls-3" d="M472.49,231.8c-28.2-28.73-26.78-76,3.17-105.41l4,4.08c-27.7,27.18-29.08,70.85-3.09,97.33Z"/><path class="cls-3" d="M773.66,207.64l-3.5-3.49a31.2,31.2,0,0,0-.42-44.15l3.46-3.53a36.15,36.15,0,0,1,.51,51.12Z"/><path class="cls-3" d="M784.14,217.92l-3.52-3.47a43.9,43.9,0,0,0,12.58-32,46.23,46.23,0,0,0-14-32.13l3.47-3.52a51.15,51.15,0,0,1,15.48,35.54A48.87,48.87,0,0,1,784.14,217.92Z"/><path class="cls-3" d="M794.92,228.47,791.39,225c22.53-22.95,21.33-60.79-2.68-84.35l3.47-3.52C818.13,162.6,819.36,203.58,794.92,228.47Z"/></g></svg>